<svg xmlns="http://www.w3.org/2000/svg" xmlns:xlink="http://www.w3.org/1999/xlink" viewBox="0 0 100 125" version="1.1" xml:space="preserve" style="" x="0px" y="0px" fill-rule="evenodd" clip-rule="evenodd" stroke-linejoin="round" stroke-miterlimit="1.41421"><g transform="matrix(1,0,0,1,-150,-0)"><clipPath id="a"><rect x="150" y="0" width="100" height="100"/></clipPath><g clip-path="url(#a)"><g transform="matrix(1,0,0,1,0,2.47487)"><g><path d="M210.148,17C211.125,17.01 212.1,17.074 213.068,17.204C214.997,17.461 216.891,17.966 218.692,18.702C220.665,19.509 222.523,20.592 224.199,21.909C225.645,23.046 226.954,24.355 228.091,25.801C228.947,26.891 229.705,28.057 230.352,29.283C231.814,32.051 232.695,35.113 232.933,38.234C233.016,39.33 233.022,40.433 232.95,41.53C232.921,41.97 232.877,42.41 232.825,42.848L232.81,42.961C232.957,43.011 232.956,43.011 233.102,43.063C233.289,43.131 233.289,43.131 233.475,43.202C234.029,43.42 234.573,43.658 235.105,43.926C236.272,44.516 237.375,45.234 238.387,46.063C240.052,47.425 241.471,49.085 242.556,50.943C243.493,52.549 244.178,54.3 244.579,56.116C245.008,58.063 245.109,60.082 244.883,62.063C244.672,63.907 244.173,65.716 243.407,67.407C242.543,69.318 241.342,71.072 239.878,72.572C238.312,74.175 236.449,75.484 234.407,76.407C232.854,77.11 231.201,77.589 229.513,77.825C228.756,77.931 227.995,77.984 227.232,77.999C209.152,78.113 191.071,78 172.99,78C172.228,77.995 171.468,77.952 170.712,77.855C169.018,77.64 167.357,77.181 165.793,76.496C163.739,75.597 161.859,74.311 160.274,72.726C158.741,71.192 157.487,69.383 156.593,67.407C155.827,65.716 155.328,63.907 155.117,62.063C154.9,60.166 154.984,58.235 155.368,56.365C155.764,54.439 156.48,52.582 157.476,50.888C158.65,48.894 160.209,47.131 162.044,45.721C163.068,44.934 164.176,44.257 165.345,43.707C165.877,43.457 166.421,43.236 166.974,43.036L167.03,43.016C167.019,42.845 167.013,42.674 167.007,42.503C167.004,42.377 167.002,42.252 167,42.126C166.998,41.433 167.032,40.741 167.111,40.052C167.271,38.654 167.606,37.277 168.106,35.961C168.74,34.296 169.638,32.733 170.756,31.345C171.78,30.075 172.985,28.952 174.326,28.022C175.913,26.922 177.687,26.095 179.551,25.59C181.837,24.97 184.251,24.838 186.591,25.197C187.65,25.359 188.692,25.622 189.701,25.982C190.172,26.149 190.633,26.34 191.088,26.546L191.238,26.616L191.283,26.637C191.383,26.498 191.484,26.36 191.587,26.222C191.896,25.813 192.215,25.412 192.55,25.023C193.259,24.197 194.027,23.421 194.845,22.704C197.476,20.396 200.63,18.701 204.01,17.79C205.3,17.442 206.622,17.208 207.953,17.09C208.565,17.036 209.179,17.009 209.793,17.001C209.912,17 210.03,17 210.148,17ZM209.847,23.001C209.341,23.007 208.836,23.032 208.332,23.081C207.255,23.186 206.188,23.394 205.15,23.702C203.678,24.14 202.268,24.781 200.969,25.598C199.603,26.457 198.36,27.512 197.288,28.718C196.402,29.715 195.642,30.813 195.007,31.985C195.007,31.985 194.35,33.223 193.854,34.157C193.718,34.413 193.477,34.598 193.194,34.663C192.912,34.728 192.614,34.667 192.38,34.496C191.7,33.997 191.02,33.498 190.334,33.008C190.218,32.927 190.1,32.847 189.982,32.77C189.079,32.189 188.102,31.734 187.07,31.434C185.447,30.963 183.715,30.875 182.051,31.172C181.165,31.331 180.298,31.6 179.477,31.971C178.51,32.409 177.607,32.988 176.805,33.683C175.904,34.463 175.13,35.389 174.523,36.415C173.885,37.495 173.433,38.684 173.197,39.916C172.994,40.975 172.948,42.063 173.058,43.135C173.101,43.556 173.171,43.972 173.26,44.386C173.26,44.386 173.543,45.623 173.759,46.566C173.821,46.84 173.769,47.128 173.614,47.363C173.459,47.598 173.215,47.759 172.938,47.809C172.17,47.946 171.401,48.084 170.635,48.233C170.505,48.26 170.375,48.288 170.246,48.318C169.862,48.41 169.482,48.518 169.108,48.646C168.37,48.899 167.658,49.225 166.984,49.617C165.312,50.589 163.884,51.966 162.85,53.6C162.153,54.702 161.637,55.917 161.332,57.184C161.038,58.406 160.94,59.673 161.035,60.926C161.133,62.211 161.44,63.479 161.942,64.667C162.507,66.001 163.316,67.229 164.315,68.277C165.38,69.394 166.659,70.304 168.066,70.941C169.099,71.408 170.197,71.726 171.32,71.883C171.825,71.954 172.334,71.989 172.844,71.999C190.948,72.114 209.052,72.114 227.156,71.999C227.716,71.988 228.275,71.946 228.829,71.861C229.948,71.69 231.041,71.359 232.066,70.88C233.465,70.227 234.732,69.301 235.784,68.172C236.771,67.111 237.565,65.873 238.114,64.532C238.603,63.336 238.894,62.062 238.976,60.773C239.058,59.467 238.931,58.149 238.592,56.886C238.216,55.485 237.581,54.156 236.731,52.981C235.658,51.497 234.247,50.264 232.631,49.403C231.853,48.987 231.029,48.659 230.178,48.426C229.788,48.319 229.393,48.234 228.995,48.165C228.995,48.165 227.668,47.951 226.668,47.789C226.389,47.744 226.143,47.584 225.989,47.347C225.835,47.11 225.788,46.819 225.861,46.546C226.074,45.745 226.287,44.943 226.492,44.139C226.536,43.962 226.577,43.785 226.616,43.607C226.828,42.607 226.957,41.592 226.991,40.57C227.032,39.301 226.935,38.028 226.696,36.781C226.433,35.415 226.002,34.082 225.413,32.822C224.92,31.768 224.319,30.765 223.622,29.834C222.765,28.688 221.765,27.651 220.651,26.754C219.371,25.723 217.943,24.878 216.421,24.256C215.159,23.74 213.834,23.378 212.485,23.18C211.771,23.076 211.051,23.019 210.33,23.003C210.169,23.001 210.008,23 209.847,23.001Z" style="" fill="black" fill-rule="nonzero"/></g></g></g></g><text x="0" y="115" fill="#000000" font-size="5px" font-weight="bold" font-family="'Helvetica Neue', Helvetica, Arial-Unicode, Arial, Sans-serif">Created by Sébastien Robaszkiewicz</text><text x="0" y="120" fill="#000000" font-size="5px" font-weight="bold" font-family="'Helvetica Neue', Helvetica, Arial-Unicode, Arial, Sans-serif">from the Noun Project</text></svg>