<?xml version="1.0" encoding="utf-8"?>
<!-- Generator: Adobe Illustrator 21.1.0, SVG Export Plug-In . SVG Version: 6.00 Build 0)  -->
<svg version="1.1" id="Layer_1" xmlns="http://www.w3.org/2000/svg" xmlns:xlink="http://www.w3.org/1999/xlink" x="0px" y="0px"
	 viewBox="0 0 100 100" style="enable-background:new 0 0 100 100;" xml:space="preserve">
<style type="text/css">
	.st0{clip-path:url(#SVGID_2_);}
</style>
<g>
	<defs>
		<rect id="SVGID_1_" width="100" height="100"/>
	</defs>
	<clipPath id="SVGID_2_">
		<use xlink:href="#SVGID_1_"  style="overflow:visible;"/>
	</clipPath>
	<g class="st0">
		<path d="M60.1,19.5c1,0,2,0.1,2.9,0.2c1.9,0.3,3.8,0.8,5.6,1.5c2,0.8,3.8,1.9,5.5,3.2c1.4,1.1,2.8,2.4,3.9,3.9
			c0.9,1.1,1.6,2.3,2.3,3.5c1.5,2.8,2.3,5.8,2.6,9c0.1,1.1,0.1,2.2,0,3.3c0,0.4-0.1,0.9-0.1,1.3l0,0.1c0.1,0.1,0.1,0.1,0.3,0.1
			c0.2,0.1,0.2,0.1,0.4,0.1c0.6,0.2,1.1,0.5,1.6,0.7c1.2,0.6,2.3,1.3,3.3,2.1c1.7,1.4,3.1,3,4.2,4.9c0.9,1.6,1.6,3.4,2,5.2
			c0.4,1.9,0.5,4,0.3,5.9c-0.2,1.8-0.7,3.7-1.5,5.3c-0.9,1.9-2.1,3.7-3.5,5.2c-1.6,1.6-3.4,2.9-5.5,3.8c-1.6,0.7-3.2,1.2-4.9,1.4
			c-0.8,0.1-1.5,0.2-2.3,0.2c-18.1,0.1-36.2,0-54.2,0c-0.8,0-1.5,0-2.3-0.1c-1.7-0.2-3.4-0.7-4.9-1.4c-2.1-0.9-3.9-2.2-5.5-3.8
			c-1.5-1.5-2.8-3.3-3.7-5.3c-0.8-1.7-1.3-3.5-1.5-5.3c-0.2-1.9-0.1-3.8,0.3-5.7c0.4-1.9,1.1-3.8,2.1-5.5c1.2-2,2.7-3.8,4.6-5.2
			c1-0.8,2.1-1.5,3.3-2c0.5-0.2,1.1-0.5,1.6-0.7l0.1,0c0-0.2,0-0.3,0-0.5c0-0.1,0-0.3,0-0.4c0-0.7,0-1.4,0.1-2.1
			c0.2-1.4,0.5-2.8,1-4.1c0.6-1.7,1.5-3.2,2.6-4.6c1-1.3,2.2-2.4,3.6-3.3c1.6-1.1,3.4-1.9,5.2-2.4c2.3-0.6,4.7-0.8,7-0.4
			c1.1,0.2,2.1,0.4,3.1,0.8c0.5,0.2,0.9,0.4,1.4,0.6l0.2,0.1l0,0c0.1-0.1,0.2-0.3,0.3-0.4c0.3-0.4,0.6-0.8,1-1.2
			c0.7-0.8,1.5-1.6,2.3-2.3c2.6-2.3,5.8-4,9.2-4.9c1.3-0.3,2.6-0.6,3.9-0.7c0.6-0.1,1.2-0.1,1.8-0.1C59.9,19.5,60,19.5,60.1,19.5z
			 M59.8,25.5c-0.5,0-1,0-1.5,0.1c-1.1,0.1-2.1,0.3-3.2,0.6c-1.5,0.4-2.9,1.1-4.2,1.9c-1.4,0.9-2.6,1.9-3.7,3.1
			c-0.9,1-1.6,2.1-2.3,3.3c0,0-0.7,1.2-1.2,2.2c-0.1,0.3-0.4,0.4-0.7,0.5c-0.3,0.1-0.6,0-0.8-0.2c-0.7-0.5-1.4-1-2-1.5
			c-0.1-0.1-0.2-0.2-0.4-0.2c-0.9-0.6-1.9-1-2.9-1.3c-1.6-0.5-3.4-0.6-5-0.3c-0.9,0.2-1.8,0.4-2.6,0.8c-1,0.4-1.9,1-2.7,1.7
			c-0.9,0.8-1.7,1.7-2.3,2.7c-0.6,1.1-1.1,2.3-1.3,3.5c-0.2,1.1-0.2,2.1-0.1,3.2c0,0.4,0.1,0.8,0.2,1.3c0,0,0.3,1.2,0.5,2.2
			c0.1,0.3,0,0.6-0.1,0.8s-0.4,0.4-0.7,0.4c-0.8,0.1-1.5,0.3-2.3,0.4c-0.1,0-0.3,0.1-0.4,0.1c-0.4,0.1-0.8,0.2-1.1,0.3
			c-0.7,0.3-1.4,0.6-2.1,1c-1.7,1-3.1,2.3-4.1,4c-0.7,1.1-1.2,2.3-1.5,3.6c-0.3,1.2-0.4,2.5-0.3,3.7c0.1,1.3,0.4,2.6,0.9,3.7
			c0.6,1.3,1.4,2.6,2.4,3.6c1.1,1.1,2.3,2,3.8,2.7c1,0.5,2.1,0.8,3.3,0.9c0.5,0.1,1,0.1,1.5,0.1c18.1,0.1,36.2,0.1,54.3,0
			c0.6,0,1.1-0.1,1.7-0.1c1.1-0.2,2.2-0.5,3.2-1c1.4-0.7,2.7-1.6,3.7-2.7c1-1.1,1.8-2.3,2.3-3.6c0.5-1.2,0.8-2.5,0.9-3.8
			c0.1-1.3,0-2.6-0.4-3.9c-0.4-1.4-1-2.7-1.9-3.9c-1.1-1.5-2.5-2.7-4.1-3.6c-0.8-0.4-1.6-0.7-2.5-1c-0.4-0.1-0.8-0.2-1.2-0.3
			c0,0-1.3-0.2-2.3-0.4c-0.3,0-0.5-0.2-0.7-0.4c-0.2-0.2-0.2-0.5-0.1-0.8c0.2-0.8,0.4-1.6,0.6-2.4c0-0.2,0.1-0.4,0.1-0.5
			c0.2-1,0.3-2,0.4-3c0-1.3-0.1-2.5-0.3-3.8c-0.3-1.4-0.7-2.7-1.3-4c-0.5-1.1-1.1-2.1-1.8-3c-0.9-1.1-1.9-2.2-3-3.1
			c-1.3-1-2.7-1.9-4.2-2.5c-1.3-0.5-2.6-0.9-3.9-1.1c-0.7-0.1-1.4-0.2-2.2-0.2C60.2,25.5,60,25.5,59.8,25.5z"/>
	</g>
</g>
</svg>
