<svg xmlns="http://www.w3.org/2000/svg" xmlns:xlink="http://www.w3.org/1999/xlink" viewBox="0 0 100 125" version="1.1" xml:space="preserve" style="" x="0px" y="0px" fill-rule="evenodd" clip-rule="evenodd" stroke-linejoin="round" stroke-miterlimit="1.41421"><g transform="matrix(1,0,0,1,-300,-0)"><clipPath id="a"><rect x="300" y="0" width="100" height="100"/></clipPath><g clip-path="url(#a)"><g transform="matrix(1,0,0,1,0,-1.98222)"><path d="M324.153,70.244C324.041,70.689 323.641,71 323.183,71C323.07,71 322.991,71 322.991,71C322.228,70.995 321.468,70.952 320.712,70.855C319.018,70.64 317.357,70.181 315.793,69.497C313.739,68.597 311.859,67.311 310.274,65.726C308.741,64.192 307.487,62.383 306.593,60.407C305.827,58.716 305.328,56.907 305.117,55.063C304.901,53.177 304.983,51.257 305.362,49.397C305.763,47.425 306.5,45.525 307.531,43.796C308.673,41.882 310.171,40.184 311.927,38.812C312.985,37.984 314.136,37.276 315.352,36.704C315.879,36.456 316.418,36.237 316.966,36.038L317,36.027C316.999,35.872 317.003,35.718 317.006,35.563C317.012,35.345 317.012,35.346 317.022,35.128C317.063,34.412 317.139,33.701 317.266,32.995C317.524,31.552 317.97,30.144 318.591,28.816C319.313,27.27 320.271,25.834 321.419,24.571C322.517,23.362 323.789,22.313 325.184,21.464C326.663,20.566 328.278,19.895 329.959,19.485C332.079,18.967 334.299,18.863 336.458,19.177C337.464,19.323 338.457,19.56 339.42,19.884C339.869,20.036 340.311,20.208 340.747,20.394L340.76,20.4C340.84,20.277 340.922,20.157 341.004,20.036C341.117,19.871 341.232,19.708 341.349,19.545C341.663,19.114 341.988,18.693 342.329,18.283C343.01,17.467 343.747,16.697 344.534,15.981C347.12,13.63 350.237,11.879 353.594,10.906C354.856,10.54 356.15,10.284 357.457,10.139C358.089,10.07 358.723,10.029 359.358,10.009C359.622,10.003 359.885,10 360.148,10C361.125,10.01 362.1,10.074 363.068,10.204C364.997,10.461 366.891,10.966 368.692,11.702C370.665,12.509 372.523,13.592 374.199,14.909C375.645,16.046 376.954,17.355 378.091,18.801C378.947,19.891 379.705,21.057 380.352,22.283C381.814,25.051 382.695,28.113 382.933,31.234C383.016,32.33 383.022,33.433 382.95,34.53C382.921,34.97 382.877,35.41 382.825,35.848L382.81,35.961C382.957,36.011 382.956,36.011 383.102,36.063C383.289,36.131 383.289,36.131 383.475,36.202C384.029,36.42 384.573,36.658 385.105,36.926C386.272,37.516 387.375,38.234 388.387,39.063C390.052,40.425 391.471,42.085 392.556,43.943C393.493,45.549 394.178,47.3 394.579,49.116C395.008,51.063 395.109,53.082 394.883,55.063C394.672,56.907 394.173,58.716 393.407,60.407C392.543,62.318 391.342,64.072 389.878,65.572C388.312,67.175 386.449,68.484 384.407,69.407C382.854,70.11 381.201,70.589 379.513,70.825C378.756,70.931 377.996,70.984 377.232,70.999C376.096,71.006 374.959,71.012 373.823,71.018C373.514,71.019 373.222,70.878 373.031,70.634C372.84,70.391 372.773,70.073 372.849,69.773C373.153,68.565 373.604,66.773 373.857,65.769C373.968,65.327 374.365,65.016 374.821,65.013C375.599,65.009 376.377,65.004 377.156,64.999C377.716,64.988 378.275,64.946 378.829,64.861C379.948,64.69 381.041,64.359 382.066,63.88C383.465,63.227 384.732,62.301 385.784,61.172C386.771,60.111 387.565,58.873 388.114,57.532C388.603,56.336 388.894,55.062 388.976,53.773C389.058,52.467 388.931,51.149 388.592,49.886C388.216,48.485 387.581,47.156 386.731,45.981C385.658,44.497 384.247,43.264 382.631,42.403C381.853,41.987 381.029,41.659 380.178,41.426C379.788,41.319 379.393,41.234 378.995,41.165C378.995,41.165 377.668,40.951 376.668,40.789C376.389,40.744 376.143,40.584 375.989,40.347C375.835,40.11 375.788,39.819 375.861,39.546C376.074,38.745 376.287,37.943 376.492,37.139C376.536,36.962 376.577,36.785 376.616,36.607C376.828,35.607 376.957,34.592 376.991,33.57C377.032,32.301 376.935,31.028 376.696,29.781C376.433,28.415 376.002,27.082 375.413,25.822C374.92,24.768 374.319,23.765 373.622,22.834C372.765,21.688 371.765,20.651 370.651,19.754C369.371,18.723 367.943,17.878 366.421,17.256C365.159,16.74 363.834,16.378 362.485,16.18C361.771,16.076 361.052,16.019 360.33,16.003C360.167,16.001 360.004,16 359.841,16.001C359.316,16.008 358.792,16.034 358.27,16.087C357.153,16.2 356.047,16.424 354.975,16.756C353.454,17.226 352.001,17.914 350.671,18.79C349.272,19.711 348.01,20.839 346.937,22.126C346.337,22.846 345.796,23.615 345.322,24.424C345.096,24.809 344.887,25.203 344.691,25.604C344.691,25.604 344.078,26.883 343.616,27.846C343.491,28.11 343.256,28.305 342.974,28.381C342.692,28.456 342.391,28.405 342.15,28.241C341.452,27.762 340.754,27.284 340.049,26.814C339.937,26.74 339.823,26.668 339.709,26.598C338.866,26.089 337.963,25.689 337.016,25.419C334.71,24.762 332.201,24.882 329.97,25.762C329.021,26.137 328.126,26.645 327.317,27.265C326.372,27.99 325.545,28.868 324.878,29.855C324.204,30.852 323.696,31.959 323.381,33.12C323.097,34.168 322.972,35.256 323.005,36.341C323.018,36.751 323.055,37.158 323.11,37.564L323.126,37.673C323.126,37.673 323.309,38.827 323.446,39.699C323.53,40.231 323.178,40.734 322.649,40.836C321.927,40.975 321.205,41.115 320.485,41.264C320.101,41.348 319.722,41.447 319.348,41.566C318.57,41.815 317.818,42.144 317.108,42.546C315.328,43.553 313.816,45.015 312.75,46.76C312.099,47.826 311.616,48.994 311.326,50.209C311.037,51.423 310.94,52.682 311.035,53.926C311.133,55.211 311.44,56.479 311.942,57.667C312.507,59.001 313.316,60.229 314.315,61.277C315.38,62.394 316.659,63.304 318.066,63.941C319.099,64.408 320.197,64.726 321.32,64.883C321.825,64.954 322.334,64.989 322.844,64.999C323.295,65.002 323.745,65.005 324.195,65.007C324.502,65.009 324.791,65.152 324.979,65.395C325.167,65.638 325.234,65.954 325.159,66.251C324.856,67.453 324.406,69.24 324.153,70.244Z" style="" fill="black"/><g transform="matrix(7.71324,-2.98441e-16,-7.46102e-16,4.30377,-2289.46,-62.3995)"><path d="M342.475,26.817C342.499,26.82 342.505,26.82 342.528,26.827C342.554,26.836 342.58,26.849 342.605,26.867C342.637,26.89 342.669,26.922 342.697,26.961C342.774,27.068 342.827,27.227 342.843,27.4C342.849,27.462 342.85,27.526 342.846,27.589C342.843,27.632 342.842,27.642 342.837,27.683L341.666,36.037C341.659,36.078 341.658,36.088 341.649,36.127C341.626,36.231 341.589,36.323 341.542,36.396C341.508,36.447 341.47,36.489 341.429,36.517C341.395,36.54 341.361,36.555 341.325,36.561C341.228,36.578 341.129,36.526 341.051,36.419C341.023,36.381 340.998,36.335 340.977,36.284C340.945,36.208 340.922,36.12 340.91,36.027C340.9,35.95 340.897,35.87 340.902,35.791C340.904,35.749 340.906,35.739 340.911,35.697L342.082,27.343C342.085,27.328 342.087,27.313 342.09,27.298C342.098,27.252 342.109,27.209 342.122,27.167C342.17,27.015 342.251,26.899 342.344,26.847C342.37,26.833 342.396,26.824 342.422,26.819C342.431,26.818 342.44,26.817 342.449,26.816C342.458,26.817 342.467,26.817 342.475,26.817Z" style="" fill="black" fill-rule="nonzero"/></g><g transform="matrix(7.71324,-2.98441e-16,-7.46102e-16,4.30377,-2304.45,-62.3995)"><path d="M342.49,26.818C342.509,26.822 342.514,26.822 342.533,26.829C342.562,26.839 342.59,26.854 342.616,26.875C342.703,26.944 342.774,27.07 342.813,27.225C342.829,27.284 342.839,27.347 342.844,27.412C342.849,27.476 342.85,27.542 342.845,27.607C342.842,27.641 342.841,27.65 342.837,27.684L342.055,33.249C342.049,33.282 342.048,33.291 342.041,33.324C342.026,33.397 342.004,33.465 341.976,33.525C341.943,33.596 341.903,33.654 341.858,33.696C341.826,33.727 341.791,33.749 341.755,33.762C341.655,33.799 341.549,33.762 341.463,33.661C341.433,33.625 341.405,33.581 341.382,33.532C341.353,33.472 341.331,33.404 341.315,33.331C341.294,33.234 341.285,33.128 341.29,33.024C341.291,32.985 341.295,32.947 341.3,32.909L342.082,27.343C342.087,27.31 342.088,27.301 342.095,27.268C342.103,27.232 342.112,27.196 342.123,27.163C342.171,27.015 342.249,26.903 342.339,26.85C342.367,26.834 342.395,26.824 342.424,26.819C342.444,26.816 342.449,26.817 342.468,26.816C342.475,26.817 342.483,26.818 342.49,26.818Z" style="" fill="black" fill-rule="nonzero"/></g><g transform="matrix(7.71324,-2.98441e-16,-7.46102e-16,4.30377,-2274.44,-62.3995)"><path d="M342.49,26.818C342.509,26.822 342.514,26.822 342.533,26.829C342.569,26.841 342.603,26.863 342.636,26.892C342.668,26.922 342.698,26.96 342.725,27.004C342.794,27.12 342.838,27.281 342.847,27.451C342.849,27.503 342.849,27.555 342.845,27.607C342.842,27.641 342.841,27.65 342.837,27.684L342.055,33.249C342.049,33.282 342.048,33.291 342.041,33.324C342.026,33.397 342.004,33.465 341.976,33.525C341.943,33.596 341.903,33.654 341.858,33.696C341.819,33.733 341.777,33.757 341.734,33.768C341.698,33.778 341.661,33.778 341.625,33.77C341.524,33.745 341.43,33.647 341.368,33.501C341.346,33.449 341.328,33.392 341.315,33.331C341.294,33.234 341.285,33.128 341.29,33.024C341.291,32.985 341.295,32.947 341.3,32.909L342.082,27.343C342.087,27.31 342.088,27.301 342.095,27.268C342.105,27.22 342.119,27.173 342.135,27.129C342.187,26.987 342.268,26.883 342.36,26.839C342.381,26.829 342.403,26.823 342.424,26.819C342.444,26.816 342.449,26.817 342.468,26.816C342.475,26.817 342.483,26.818 342.49,26.818Z" style="" fill="black" fill-rule="nonzero"/></g></g></g></g><text x="0" y="115" fill="#000000" font-size="5px" font-weight="bold" font-family="'Helvetica Neue', Helvetica, Arial-Unicode, Arial, Sans-serif">Created by Sébastien Robaszkiewicz</text><text x="0" y="120" fill="#000000" font-size="5px" font-weight="bold" font-family="'Helvetica Neue', Helvetica, Arial-Unicode, Arial, Sans-serif">from the Noun Project</text></svg>