<?xml version="1.0" encoding="utf-8"?>
<!-- Generator: Adobe Illustrator 21.1.0, SVG Export Plug-In . SVG Version: 6.00 Build 0)  -->
<svg version="1.1" id="Layer_1" xmlns="http://www.w3.org/2000/svg" xmlns:xlink="http://www.w3.org/1999/xlink" x="0px" y="0px"
	 viewBox="0 0 18 15" style="enable-background:new 0 0 18 15;" xml:space="preserve">
<title>menu</title>
<g>
	<g>
		<path d="M1.5,3h15C17.3,3,18,2.3,18,1.5S17.3,0,16.5,0h-15C0.7,0,0,0.7,0,1.5S0.7,3,1.5,3z"/>
		<path d="M16.5,6h-15C0.7,6,0,6.7,0,7.5S0.7,9,1.5,9h15C17.3,9,18,8.3,18,7.5S17.3,6,16.5,6z"/>
		<path d="M16.5,12h-15C0.7,12,0,12.7,0,13.5S0.7,15,1.5,15h15c0.8,0,1.5-0.7,1.5-1.5S17.3,12,16.5,12z"/>
	</g>
</g>
</svg>
