<svg xmlns="http://www.w3.org/2000/svg" xmlns:xlink="http://www.w3.org/1999/xlink" viewBox="0 0 100 125" version="1.1" xml:space="preserve" style="" x="0px" y="0px" fill-rule="evenodd" clip-rule="evenodd" stroke-linejoin="round" stroke-miterlimit="1.41421"><g transform="matrix(1,0,0,1,-750,-0)"><clipPath id="a"><rect x="750" y="0" width="100" height="100"/></clipPath><g clip-path="url(#a)"><g transform="matrix(1,0,0,1,150,-4.97517)"><g transform="matrix(1.24322,0,-3.08149e-33,1.24322,-348.009,-17.8575)"><path d="M802.181,67.256C802.332,67.095 802.543,67.003 802.764,67.003C802.985,67.004 803.196,67.095 803.347,67.257C805.067,69.103 810.004,74.746 810.004,78.713C810.004,82.709 806.76,85.953 802.765,85.953C798.769,85.953 795.525,82.709 795.525,78.713C795.525,74.714 800.459,69.094 802.181,67.256Z" style="" fill="black"/></g><g transform="matrix(1,0,0,1,-150,4.97517)"><path d="M785.51,74.374C785.353,74.746 784.989,74.988 784.586,74.987C780.721,74.98 776.856,74.975 772.991,74.975C772.228,74.97 771.468,74.927 770.712,74.83C769.018,74.615 767.357,74.156 765.793,73.471C763.739,72.572 761.859,71.286 760.274,69.701C758.741,68.167 757.487,66.358 756.593,64.382C755.827,62.691 755.328,60.882 755.117,59.038C754.901,57.152 754.983,55.232 755.362,53.372C755.763,51.4 756.5,49.499 757.531,47.771C758.673,45.857 760.171,44.159 761.927,42.787C762.985,41.959 764.136,41.25 765.352,40.679C765.879,40.431 766.418,40.212 766.966,40.013L767,40.001C766.999,39.847 767.003,39.692 767.006,39.538C767.012,39.32 767.012,39.32 767.022,39.103C767.063,38.387 767.139,37.676 767.266,36.97C767.524,35.527 767.97,34.119 768.591,32.791C769.313,31.244 770.271,29.809 771.419,28.546C772.517,27.337 773.789,26.288 775.184,25.439C776.663,24.541 778.278,23.87 779.959,23.459C782.079,22.941 784.299,22.838 786.458,23.152C787.464,23.298 788.457,23.535 789.42,23.859C789.869,24.01 790.311,24.182 790.747,24.369L790.76,24.375C790.84,24.252 790.922,24.132 791.004,24.011C791.117,23.846 791.232,23.682 791.349,23.52C791.663,23.089 791.988,22.667 792.329,22.258C793.01,21.441 793.747,20.672 794.534,19.956C797.12,17.605 800.237,15.854 803.594,14.881C804.856,14.515 806.15,14.258 807.457,14.114C808.089,14.045 808.723,14.004 809.358,13.984C809.622,13.978 809.885,13.974 810.148,13.975C811.125,13.985 812.1,14.049 813.068,14.178C814.997,14.436 816.891,14.941 818.692,15.677C820.665,16.484 822.523,17.567 824.199,18.884C825.645,20.021 826.954,21.33 828.091,22.776C828.947,23.866 829.705,25.032 830.352,26.258C831.814,29.026 832.695,32.088 832.933,35.209C833.016,36.305 833.022,37.407 832.95,38.504C832.921,38.945 832.877,39.384 832.825,39.823L832.81,39.936C832.957,39.986 832.956,39.986 833.102,40.038C833.289,40.106 833.289,40.106 833.475,40.177C834.029,40.394 834.573,40.633 835.105,40.901C836.272,41.491 837.375,42.209 838.387,43.037C840.052,44.4 841.471,46.059 842.556,47.918C843.493,49.524 844.178,51.275 844.579,53.091C845.008,55.038 845.109,57.056 844.883,59.037C844.672,60.882 844.173,62.691 843.407,64.382C842.543,66.292 841.342,68.047 839.878,69.547C838.312,71.15 836.449,72.458 834.407,73.382C832.854,74.085 831.201,74.564 829.513,74.8C828.756,74.906 827.996,74.959 827.232,74.973C823.294,74.998 819.355,75.013 815.417,75.019C815.013,75.02 814.648,74.778 814.492,74.405C814.103,73.472 813.352,71.676 812.828,70.42C812.699,70.112 812.733,69.76 812.917,69.482C813.102,69.203 813.413,69.036 813.747,69.035C818.062,69.02 823.009,69 827.156,68.974C827.716,68.963 828.275,68.921 828.829,68.836C829.948,68.665 831.041,68.334 832.066,67.855C833.465,67.201 834.732,66.276 835.784,65.147C836.771,64.086 837.565,62.848 838.114,61.507C838.603,60.311 838.894,59.037 838.976,57.747C839.058,56.442 838.931,55.124 838.592,53.861C838.216,52.459 837.581,51.131 836.731,49.956C835.658,48.472 834.247,47.239 832.631,46.377C831.853,45.962 831.029,45.634 830.178,45.4C829.788,45.293 829.393,45.209 828.995,45.14C828.995,45.14 827.668,44.926 826.668,44.764C826.389,44.719 826.143,44.558 825.989,44.322C825.835,44.085 825.788,43.794 825.861,43.521C826.074,42.719 826.287,41.918 826.492,41.114C826.536,40.937 826.577,40.76 826.616,40.582C826.828,39.582 826.957,38.567 826.991,37.545C827.032,36.276 826.935,35.003 826.696,33.756C826.433,32.39 826.002,31.057 825.413,29.796C824.92,28.743 824.319,27.74 823.622,26.809C822.765,25.663 821.765,24.626 820.651,23.729C819.371,22.698 817.943,21.853 816.421,21.231C815.159,20.715 813.834,20.353 812.485,20.155C811.771,20.051 811.052,19.994 810.33,19.978C810.167,19.975 810.004,19.975 809.841,19.976C809.316,19.983 808.792,20.009 808.27,20.062C807.153,20.175 806.047,20.399 804.975,20.731C803.454,21.201 802.001,21.889 800.671,22.764C799.272,23.686 798.01,24.814 796.937,26.101C796.337,26.821 795.796,27.59 795.322,28.399C795.096,28.784 794.887,29.178 794.691,29.579C794.691,29.579 794.078,30.857 793.616,31.821C793.491,32.085 793.256,32.28 792.974,32.356C792.692,32.431 792.391,32.38 792.15,32.216C791.452,31.737 790.754,31.259 790.049,30.789C789.937,30.715 789.823,30.643 789.709,30.572C788.866,30.064 787.963,29.663 787.016,29.394C784.71,28.737 782.201,28.857 779.97,29.737C779.021,30.112 778.126,30.619 777.317,31.24C776.372,31.965 775.545,32.842 774.878,33.829C774.204,34.826 773.696,35.933 773.381,37.095C773.097,38.142 772.972,39.231 773.005,40.316C773.018,40.726 773.055,41.133 773.11,41.539L773.126,41.648C773.126,41.648 773.309,42.802 773.446,43.673C773.53,44.205 773.178,44.708 772.649,44.811C771.927,44.95 771.205,45.089 770.485,45.239C770.101,45.323 769.722,45.422 769.348,45.541C768.57,45.79 767.818,46.119 767.108,46.521C765.328,47.527 763.816,48.99 762.75,50.735C762.099,51.801 761.616,52.969 761.326,54.184C761.037,55.398 760.94,56.656 761.035,57.9C761.133,59.186 761.44,60.454 761.942,61.642C762.507,62.976 763.316,64.203 764.315,65.252C765.38,66.369 766.659,67.279 768.066,67.916C769.099,68.383 770.197,68.701 771.32,68.858C771.825,68.929 772.334,68.964 772.844,68.974C776.99,69 781.935,69.02 786.249,69.035C786.584,69.036 786.895,69.204 787.08,69.482C787.264,69.761 787.297,70.113 787.168,70.422C786.644,71.67 785.898,73.448 785.51,74.374Z" style="" fill="black"/></g></g></g></g><text x="0" y="115" fill="#000000" font-size="5px" font-weight="bold" font-family="'Helvetica Neue', Helvetica, Arial-Unicode, Arial, Sans-serif">Created by Sébastien Robaszkiewicz</text><text x="0" y="120" fill="#000000" font-size="5px" font-weight="bold" font-family="'Helvetica Neue', Helvetica, Arial-Unicode, Arial, Sans-serif">from the Noun Project</text></svg>