<?xml version="1.0" encoding="utf-8"?>
<!-- Generator: Adobe Illustrator 21.1.0, SVG Export Plug-In . SVG Version: 6.00 Build 0)  -->
<svg version="1.1"
	 id="Layer_1" xmlns:cc="http://creativecommons.org/ns#" xmlns:dc="http://purl.org/dc/elements/1.1/" xmlns:rdf="http://www.w3.org/1999/02/22-rdf-syntax-ns#" xmlns:svg="http://www.w3.org/2000/svg"
	 xmlns="http://www.w3.org/2000/svg" xmlns:xlink="http://www.w3.org/1999/xlink" x="0px" y="0px" viewBox="0 0 90 70.9"
	 style="enable-background:new 0 0 90 70.9;" xml:space="preserve">
<g>
	<path d="M45,0C28.5,0,14.5,11.4,10.6,26.7H0l15.4,21.4l15.4-21.4H20.1C23.7,16.4,33.4,9.1,45,9.1c8,0,15.1,3.5,19.9,9.1l5.4-7.5
		C63.9,4.1,54.9,0,45,0z M74.6,22.8L59.1,44.2h10.8C66.3,54.5,56.6,61.9,45,61.9c-8,0-15.1-3.5-20-9.1l-5.4,7.4
		c6.4,6.6,15.4,10.7,25.3,10.7c16.5,0,30.4-11.4,34.3-26.8H90L74.6,22.8z"/>
</g>
</svg>
