<svg xmlns="http://www.w3.org/2000/svg" xmlns:xlink="http://www.w3.org/1999/xlink" viewBox="0 0 100 125" version="1.1" xml:space="preserve" style="" x="0px" y="0px" fill-rule="evenodd" clip-rule="evenodd" stroke-linejoin="round" stroke-miterlimit="1.41421"><g transform="matrix(1,0,0,1,-450,-0)"><clipPath id="a"><rect x="450" y="0" width="100" height="100"/></clipPath><g clip-path="url(#a)"><g transform="matrix(1,0,0,1,150,-1.9821)"><g transform="matrix(7.71324,-2.98441e-16,-7.46102e-16,4.30377,-2292.46,-50.3995)"><path d="M341.817,31.463C341.865,31.466 341.912,31.481 341.956,31.513C342.05,31.581 342.127,31.716 342.168,31.883C342.182,31.941 342.192,32.004 342.197,32.067C342.203,32.152 342.2,32.237 342.19,32.321C342.146,32.638 342.099,32.955 342.051,33.27C342.035,33.368 342.009,33.458 341.971,33.535C341.948,33.584 341.921,33.626 341.891,33.661C341.793,33.776 341.669,33.807 341.558,33.742C341.521,33.721 341.486,33.69 341.454,33.65C341.415,33.601 341.381,33.539 341.355,33.468C341.327,33.393 341.307,33.308 341.296,33.219C341.285,33.12 341.286,33.018 341.299,32.918C341.343,32.601 341.389,32.284 341.437,31.969C341.448,31.902 341.464,31.839 341.485,31.78C341.534,31.646 341.608,31.544 341.694,31.496C341.725,31.478 341.757,31.468 341.79,31.464C341.799,31.464 341.808,31.463 341.817,31.463Z" style="" fill="black" fill-rule="nonzero"/></g><g transform="matrix(7.71324,-2.98441e-16,-7.46102e-16,4.30377,-2292.46,-50.3995)"><path d="M342.465,26.816C342.513,26.819 342.56,26.834 342.604,26.866C342.637,26.89 342.669,26.922 342.697,26.961C342.777,27.072 342.831,27.239 342.845,27.42C342.851,27.505 342.848,27.59 342.838,27.674C342.794,27.991 342.748,28.308 342.7,28.623C342.683,28.721 342.657,28.811 342.62,28.888C342.586,28.957 342.546,29.013 342.501,29.054C342.458,29.093 342.412,29.117 342.364,29.125C342.326,29.132 342.287,29.129 342.249,29.115C342.134,29.074 342.034,28.939 341.98,28.753C341.964,28.696 341.952,28.635 341.945,28.572C341.933,28.473 341.935,28.37 341.947,28.271C341.991,27.954 342.037,27.637 342.085,27.322C342.096,27.255 342.112,27.192 342.133,27.133C342.182,26.999 342.257,26.897 342.342,26.849C342.373,26.831 342.406,26.821 342.438,26.817C342.447,26.817 342.456,26.816 342.465,26.816Z" style="" fill="black" fill-rule="nonzero"/></g><g transform="matrix(7.71324,-2.98441e-16,-7.46102e-16,4.30377,-2304.45,-62.3995)"><path d="M341.817,31.463C341.865,31.466 341.912,31.481 341.956,31.513C341.989,31.537 342.02,31.569 342.049,31.608C342.129,31.72 342.183,31.886 342.197,32.067C342.203,32.152 342.2,32.237 342.19,32.321C342.146,32.638 342.099,32.955 342.051,33.27C342.035,33.368 342.009,33.458 341.971,33.535C341.948,33.584 341.921,33.626 341.891,33.661C341.793,33.776 341.669,33.807 341.558,33.742C341.521,33.721 341.486,33.69 341.454,33.65C341.415,33.601 341.381,33.539 341.355,33.468C341.327,33.393 341.307,33.308 341.296,33.22C341.285,33.12 341.286,33.018 341.299,32.918C341.343,32.601 341.389,32.284 341.437,31.969C341.447,31.913 341.459,31.858 341.476,31.808C341.521,31.669 341.593,31.561 341.677,31.506C341.713,31.482 341.751,31.469 341.79,31.464C341.799,31.464 341.808,31.463 341.817,31.463Z" style="" fill="black" fill-rule="nonzero"/></g><g transform="matrix(7.71324,-2.98441e-16,-7.46102e-16,4.30377,-2304.45,-62.3995)"><path d="M342.465,26.816C342.513,26.819 342.56,26.834 342.604,26.866C342.699,26.934 342.776,27.069 342.816,27.236C342.83,27.294 342.84,27.356 342.845,27.42C342.851,27.505 342.848,27.59 342.838,27.674C342.794,27.991 342.748,28.308 342.7,28.623C342.683,28.721 342.657,28.811 342.62,28.888C342.596,28.937 342.569,28.979 342.539,29.014C342.442,29.129 342.317,29.159 342.206,29.095C342.169,29.074 342.134,29.042 342.102,29.003C342.064,28.954 342.03,28.892 342.003,28.821C341.975,28.746 341.955,28.661 341.945,28.572C341.933,28.473 341.935,28.37 341.947,28.271C341.991,27.954 342.037,27.637 342.085,27.322C342.096,27.255 342.112,27.192 342.133,27.133C342.182,26.999 342.257,26.897 342.342,26.849C342.373,26.831 342.406,26.821 342.438,26.817C342.447,26.817 342.456,26.816 342.465,26.816Z" style="" fill="black" fill-rule="nonzero"/></g><g transform="matrix(7.71324,-2.98441e-16,-7.46102e-16,4.30377,-2274.44,-62.3995)"><path d="M341.817,31.463C341.865,31.466 341.912,31.481 341.956,31.513C341.989,31.537 342.02,31.569 342.049,31.608C342.129,31.72 342.183,31.886 342.197,32.067C342.203,32.152 342.2,32.237 342.19,32.321C342.146,32.638 342.099,32.955 342.051,33.27C342.035,33.368 342.009,33.458 341.971,33.535C341.946,33.588 341.916,33.633 341.884,33.67C341.784,33.781 341.66,33.806 341.549,33.737C341.516,33.716 341.483,33.686 341.454,33.65C341.415,33.601 341.381,33.539 341.355,33.468C341.327,33.393 341.307,33.308 341.296,33.22C341.285,33.12 341.286,33.018 341.299,32.918C341.343,32.601 341.389,32.284 341.437,31.969C341.447,31.913 341.459,31.858 341.476,31.808C341.521,31.669 341.593,31.561 341.677,31.506C341.713,31.482 341.751,31.469 341.79,31.464C341.799,31.464 341.808,31.463 341.817,31.463Z" style="" fill="black" fill-rule="nonzero"/></g><g transform="matrix(7.71324,-2.98441e-16,-7.46102e-16,4.30377,-2274.44,-62.3995)"><path d="M342.465,26.816C342.513,26.819 342.56,26.834 342.604,26.866C342.699,26.934 342.776,27.069 342.816,27.236C342.83,27.294 342.84,27.356 342.845,27.42C342.851,27.505 342.848,27.59 342.838,27.674C342.794,27.991 342.748,28.308 342.7,28.623C342.683,28.721 342.657,28.811 342.62,28.888C342.596,28.937 342.569,28.979 342.539,29.014C342.442,29.129 342.317,29.159 342.206,29.095C342.169,29.074 342.134,29.042 342.102,29.003C342.064,28.954 342.03,28.892 342.003,28.821C341.975,28.746 341.955,28.661 341.945,28.572C341.933,28.473 341.935,28.37 341.947,28.271C341.991,27.954 342.037,27.637 342.085,27.322C342.096,27.255 342.112,27.192 342.133,27.133C342.182,26.999 342.257,26.897 342.342,26.849C342.373,26.831 342.406,26.821 342.438,26.817C342.447,26.817 342.456,26.816 342.465,26.816Z" style="" fill="black" fill-rule="nonzero"/></g><path d="M324.153,70.244C324.041,70.689 323.641,71 323.183,71C323.07,71 322.991,71 322.991,71C322.228,70.995 321.468,70.952 320.712,70.855C319.018,70.64 317.357,70.181 315.793,69.497C313.739,68.597 311.859,67.311 310.274,65.726C308.741,64.192 307.487,62.383 306.593,60.407C305.827,58.716 305.328,56.907 305.117,55.063C304.901,53.177 304.983,51.257 305.362,49.397C305.763,47.425 306.5,45.525 307.531,43.796C308.673,41.882 310.171,40.184 311.927,38.812C312.985,37.984 314.136,37.276 315.352,36.704C315.879,36.456 316.418,36.237 316.966,36.038L317,36.027C316.999,35.872 317.003,35.718 317.006,35.563C317.012,35.345 317.012,35.346 317.022,35.128C317.063,34.412 317.139,33.701 317.266,32.995C317.524,31.552 317.97,30.144 318.591,28.816C319.313,27.27 320.271,25.834 321.419,24.571C322.517,23.362 323.789,22.313 325.184,21.464C326.663,20.566 328.278,19.895 329.959,19.485C332.079,18.967 334.299,18.863 336.458,19.177C337.464,19.323 338.457,19.56 339.42,19.884C339.869,20.036 340.311,20.208 340.747,20.394L340.76,20.4C340.84,20.277 340.922,20.157 341.004,20.036C341.117,19.871 341.232,19.708 341.349,19.545C341.663,19.114 341.988,18.693 342.329,18.283C343.01,17.467 343.747,16.697 344.534,15.981C347.12,13.63 350.237,11.879 353.594,10.906C354.856,10.54 356.15,10.284 357.457,10.139C358.089,10.07 358.723,10.029 359.358,10.009C359.622,10.003 359.885,10 360.148,10C361.125,10.01 362.1,10.074 363.068,10.204C364.997,10.461 366.891,10.966 368.692,11.702C370.665,12.509 372.523,13.592 374.199,14.909C375.645,16.046 376.954,17.355 378.091,18.801C378.947,19.891 379.705,21.057 380.352,22.283C381.814,25.051 382.695,28.113 382.933,31.234C383.016,32.33 383.022,33.433 382.95,34.53C382.921,34.97 382.877,35.41 382.825,35.848L382.81,35.961C382.957,36.011 382.956,36.011 383.102,36.063C383.289,36.131 383.289,36.131 383.475,36.202C384.029,36.42 384.573,36.658 385.105,36.926C386.272,37.516 387.375,38.234 388.387,39.063C390.052,40.425 391.471,42.085 392.556,43.943C393.493,45.549 394.178,47.3 394.579,49.116C395.008,51.063 395.109,53.082 394.883,55.063C394.672,56.907 394.173,58.716 393.407,60.407C392.543,62.318 391.342,64.072 389.878,65.572C388.312,67.175 386.449,68.484 384.407,69.407C382.854,70.11 381.201,70.589 379.513,70.825C378.756,70.931 377.996,70.984 377.232,70.999C376.096,71.006 374.959,71.012 373.823,71.018C373.514,71.019 373.222,70.878 373.031,70.634C372.84,70.391 372.773,70.073 372.849,69.773C373.153,68.565 373.604,66.773 373.857,65.769C373.968,65.327 374.365,65.016 374.821,65.013C375.599,65.009 376.377,65.004 377.156,64.999C377.716,64.988 378.275,64.946 378.829,64.861C379.948,64.69 381.041,64.359 382.066,63.88C383.465,63.227 384.732,62.301 385.784,61.172C386.771,60.111 387.565,58.873 388.114,57.532C388.603,56.336 388.894,55.062 388.976,53.773C389.058,52.467 388.931,51.149 388.592,49.886C388.216,48.485 387.581,47.156 386.731,45.981C385.658,44.497 384.247,43.264 382.631,42.403C381.853,41.987 381.029,41.659 380.178,41.426C379.788,41.319 379.393,41.234 378.995,41.165C378.995,41.165 377.668,40.951 376.668,40.789C376.389,40.744 376.143,40.584 375.989,40.347C375.835,40.11 375.788,39.819 375.861,39.546C376.074,38.745 376.287,37.943 376.492,37.139C376.536,36.962 376.577,36.785 376.616,36.607C376.828,35.607 376.957,34.592 376.991,33.57C377.032,32.301 376.935,31.028 376.696,29.781C376.433,28.415 376.002,27.082 375.413,25.822C374.92,24.768 374.319,23.765 373.622,22.834C372.765,21.688 371.765,20.651 370.651,19.754C369.371,18.723 367.943,17.878 366.421,17.256C365.159,16.74 363.834,16.378 362.485,16.18C361.771,16.076 361.052,16.019 360.33,16.003C360.167,16.001 360.004,16 359.841,16.001C359.316,16.008 358.792,16.034 358.27,16.087C357.153,16.2 356.047,16.424 354.975,16.756C353.454,17.226 352.001,17.914 350.671,18.79C349.272,19.711 348.01,20.839 346.937,22.126C346.337,22.846 345.796,23.615 345.322,24.424C345.096,24.809 344.887,25.203 344.691,25.604C344.691,25.604 344.078,26.883 343.616,27.846C343.491,28.11 343.256,28.305 342.974,28.381C342.692,28.456 342.391,28.405 342.15,28.241C341.452,27.762 340.754,27.284 340.049,26.814C339.937,26.74 339.823,26.668 339.709,26.598C338.866,26.089 337.963,25.689 337.016,25.419C334.71,24.762 332.201,24.882 329.97,25.762C329.021,26.137 328.126,26.645 327.317,27.265C326.372,27.99 325.545,28.868 324.878,29.855C324.204,30.852 323.696,31.959 323.381,33.12C323.097,34.168 322.972,35.256 323.005,36.341C323.018,36.751 323.055,37.158 323.11,37.564L323.126,37.673C323.126,37.673 323.309,38.827 323.446,39.699C323.53,40.231 323.178,40.734 322.649,40.836C321.927,40.975 321.205,41.115 320.485,41.264C320.101,41.348 319.722,41.447 319.348,41.566C318.57,41.815 317.818,42.144 317.108,42.546C315.328,43.553 313.816,45.015 312.75,46.76C312.099,47.826 311.616,48.994 311.326,50.209C311.037,51.423 310.94,52.682 311.035,53.926C311.133,55.211 311.44,56.479 311.942,57.667C312.507,59.001 313.316,60.229 314.315,61.277C315.38,62.394 316.659,63.304 318.066,63.941C319.099,64.408 320.197,64.726 321.32,64.883C321.825,64.954 322.334,64.989 322.844,64.999C323.295,65.002 323.745,65.005 324.195,65.007C324.502,65.009 324.791,65.152 324.979,65.395C325.167,65.638 325.234,65.954 325.159,66.251C324.856,67.453 324.406,69.24 324.153,70.244Z" style="" fill="black"/></g></g></g><text x="0" y="115" fill="#000000" font-size="5px" font-weight="bold" font-family="'Helvetica Neue', Helvetica, Arial-Unicode, Arial, Sans-serif">Created by Sébastien Robaszkiewicz</text><text x="0" y="120" fill="#000000" font-size="5px" font-weight="bold" font-family="'Helvetica Neue', Helvetica, Arial-Unicode, Arial, Sans-serif">from the Noun Project</text></svg>