<svg xmlns="http://www.w3.org/2000/svg" xmlns:xlink="http://www.w3.org/1999/xlink" viewBox="0 0 100 125" version="1.1" xml:space="preserve" style="" x="0px" y="0px" fill-rule="evenodd" clip-rule="evenodd" stroke-linejoin="round" stroke-miterlimit="1.41421"><g transform="matrix(1,0,0,1,-900,-0)"><clipPath id="a"><rect x="900" y="0" width="100" height="100"/></clipPath><g clip-path="url(#a)"><g transform="matrix(1,0,0,1,300,-4.97517)"><g transform="matrix(1,0,0,1,-300,4.97517)"><path d="M934,73.98C934,74.245 933.894,74.5 933.707,74.688C933.519,74.875 933.264,74.98 932.999,74.98C930.098,74.977 925.361,74.975 922.991,74.975C922.228,74.97 921.468,74.927 920.712,74.83C919.018,74.615 917.357,74.156 915.793,73.471C913.739,72.572 911.859,71.286 910.274,69.701C908.741,68.167 907.487,66.358 906.593,64.382C905.827,62.691 905.328,60.882 905.117,59.038C904.901,57.152 904.983,55.232 905.362,53.372C905.763,51.4 906.5,49.499 907.531,47.771C908.673,45.857 910.171,44.159 911.927,42.787C912.985,41.959 914.136,41.25 915.352,40.679C915.879,40.431 916.418,40.212 916.966,40.013L917,40.001C916.999,39.847 917.003,39.692 917.006,39.538C917.012,39.32 917.012,39.32 917.022,39.103C917.063,38.387 917.139,37.676 917.266,36.97C917.524,35.527 917.97,34.119 918.591,32.791C919.313,31.244 920.271,29.809 921.419,28.546C922.517,27.337 923.789,26.288 925.184,25.439C926.663,24.541 928.278,23.87 929.959,23.459C932.079,22.941 934.299,22.838 936.458,23.152C937.464,23.298 938.457,23.535 939.42,23.859C939.869,24.01 940.311,24.182 940.747,24.369L940.76,24.375C940.84,24.252 940.922,24.132 941.004,24.011C941.117,23.846 941.232,23.682 941.349,23.52C941.663,23.089 941.988,22.667 942.329,22.258C943.01,21.441 943.747,20.672 944.534,19.956C947.12,17.605 950.237,15.854 953.594,14.881C954.856,14.515 956.15,14.258 957.457,14.114C958.089,14.045 958.723,14.004 959.358,13.984C959.622,13.978 959.885,13.974 960.148,13.975C961.125,13.985 962.1,14.049 963.068,14.178C964.997,14.436 966.891,14.941 968.692,15.677C970.665,16.484 972.523,17.567 974.199,18.884C975.645,20.021 976.954,21.33 978.091,22.776C978.947,23.866 979.705,25.032 980.352,26.258C981.814,29.026 982.695,32.088 982.933,35.209C983.016,36.305 983.022,37.407 982.95,38.504C982.921,38.945 982.877,39.384 982.825,39.823L982.81,39.936C982.957,39.986 982.956,39.986 983.102,40.038C983.289,40.106 983.289,40.106 983.475,40.177C984.029,40.394 984.573,40.633 985.105,40.901C986.272,41.491 987.375,42.209 988.387,43.037C990.052,44.4 991.471,46.059 992.556,47.918C993.493,49.524 994.178,51.275 994.579,53.091C995.008,55.038 995.109,57.056 994.883,59.037C994.672,60.882 994.173,62.691 993.407,64.382C992.543,66.292 991.342,68.047 989.878,69.547C988.312,71.15 986.449,72.458 984.407,73.382C982.854,74.085 981.201,74.564 979.513,74.8C978.756,74.906 977.996,74.959 977.232,74.973C974.789,74.989 969.968,75 967.003,75.008C966.737,75.009 966.482,74.904 966.294,74.716C966.106,74.529 966,74.274 966,74.008C966,72.899 966,71.121 966,70.014C966,69.463 966.445,69.016 966.996,69.014C969.938,69.002 974.736,68.989 977.156,68.974C977.716,68.963 978.275,68.921 978.829,68.836C979.948,68.665 981.041,68.334 982.066,67.855C983.465,67.201 984.732,66.276 985.784,65.147C986.771,64.086 987.565,62.848 988.114,61.507C988.603,60.311 988.894,59.037 988.976,57.747C989.058,56.442 988.931,55.124 988.592,53.861C988.216,52.459 987.581,51.131 986.731,49.956C985.658,48.472 984.247,47.239 982.631,46.377C981.853,45.962 981.029,45.634 980.178,45.4C979.788,45.293 979.393,45.209 978.995,45.14C978.995,45.14 977.668,44.926 976.668,44.764C976.389,44.719 976.143,44.558 975.989,44.322C975.835,44.085 975.788,43.794 975.861,43.521C976.074,42.719 976.287,41.918 976.492,41.114C976.536,40.937 976.577,40.76 976.616,40.582C976.828,39.582 976.957,38.567 976.991,37.545C977.032,36.276 976.935,35.003 976.696,33.756C976.433,32.39 976.002,31.057 975.413,29.796C974.92,28.743 974.319,27.74 973.622,26.809C972.765,25.663 971.765,24.626 970.651,23.729C969.371,22.698 967.943,21.853 966.421,21.231C965.159,20.715 963.834,20.353 962.485,20.155C961.771,20.051 961.052,19.994 960.33,19.978C960.167,19.975 960.004,19.975 959.841,19.976C959.316,19.983 958.792,20.009 958.27,20.062C957.153,20.175 956.047,20.399 954.975,20.731C953.454,21.201 952.001,21.889 950.671,22.764C949.272,23.686 948.01,24.814 946.937,26.101C946.337,26.821 945.796,27.59 945.322,28.399C945.096,28.784 944.887,29.178 944.691,29.579C944.691,29.579 944.078,30.857 943.616,31.821C943.491,32.085 943.256,32.28 942.974,32.356C942.692,32.431 942.391,32.38 942.15,32.216C941.452,31.737 940.754,31.259 940.049,30.789C939.937,30.715 939.823,30.643 939.709,30.572C938.866,30.064 937.963,29.663 937.016,29.394C934.71,28.737 932.201,28.857 929.97,29.737C929.021,30.112 928.126,30.619 927.317,31.24C926.372,31.965 925.545,32.842 924.878,33.829C924.204,34.826 923.696,35.933 923.381,37.095C923.097,38.142 922.972,39.231 923.005,40.316C923.018,40.726 923.055,41.133 923.11,41.539L923.126,41.648C923.126,41.648 923.309,42.802 923.446,43.673C923.53,44.205 923.178,44.708 922.649,44.811C921.927,44.95 921.205,45.089 920.485,45.239C920.101,45.323 919.722,45.422 919.348,45.541C918.57,45.79 917.818,46.119 917.108,46.521C915.328,47.527 913.816,48.99 912.75,50.735C912.099,51.801 911.616,52.969 911.326,54.184C911.037,55.398 910.94,56.656 911.035,57.9C911.133,59.186 911.44,60.454 911.942,61.642C912.507,62.976 913.316,64.203 914.315,65.252C915.38,66.369 916.659,67.279 918.066,67.916C919.099,68.383 920.197,68.701 921.32,68.858C921.825,68.929 922.334,68.964 922.844,68.974C925.264,68.989 930.062,69.002 933.004,69.014C933.555,69.016 934,69.463 934,70.014C934,71.114 934,72.877 934,73.98Z" style="" fill="black"/></g><g transform="matrix(1,0,0,1,-300,4.97517)"><path d="M948.458,70.386C948.448,68.876 948.459,67.365 948.473,65.854C947.707,65.424 946.956,64.966 946.202,64.516C946.009,64.394 945.845,64.236 945.722,64.043C945.646,63.924 945.587,63.794 945.548,63.658C945.399,63.148 945.538,62.584 945.905,62.201C946.023,62.078 946.161,61.976 946.313,61.9C946.504,61.803 946.711,61.752 946.924,61.74C946.967,61.739 947.009,61.739 947.052,61.74C947.267,61.752 947.47,61.805 947.663,61.9C947.944,62.046 948.222,62.198 948.498,62.353C948.499,62.069 948.5,61.784 948.5,61.5C948.505,61.333 948.527,61.171 948.581,61.013C948.726,60.592 949.058,60.251 949.474,60.095C949.631,60.036 949.792,60.01 949.959,60.001C950.042,60.001 950.041,60.001 950.124,60.005C950.29,60.023 950.449,60.059 950.603,60.126C950.984,60.294 951.284,60.619 951.419,61.013C951.464,61.145 951.486,61.279 951.498,61.417C951.506,61.729 951.514,62.041 951.52,62.353C951.779,62.208 952.04,62.064 952.299,61.919C952.49,61.82 952.692,61.761 952.906,61.743C952.948,61.74 952.991,61.739 953.033,61.739C953.247,61.745 953.455,61.79 953.649,61.881C953.803,61.953 953.944,62.052 954.065,62.171C954.443,62.544 954.597,63.103 954.464,63.617C954.428,63.754 954.373,63.886 954.3,64.007C954.183,64.204 954.023,64.366 953.834,64.493C953.088,64.968 952.318,65.404 951.545,65.834C951.542,67.347 951.525,68.859 951.513,70.372C952.82,69.606 954.138,68.857 955.457,68.11C955.451,67.232 955.454,66.355 955.467,65.477C955.475,65.31 955.505,65.147 955.564,64.99C955.71,64.606 956.013,64.294 956.393,64.136C956.533,64.078 956.68,64.044 956.831,64.028C956.891,64.024 956.951,64.022 957.012,64.023C957.179,64.03 957.342,64.06 957.499,64.12C957.897,64.271 958.218,64.592 958.369,64.99C958.429,65.147 958.458,65.31 958.466,65.477C958.471,65.783 958.474,66.089 958.476,66.395C958.727,66.251 958.978,66.107 959.229,65.962C959.343,65.9 959.459,65.848 959.584,65.814C959.684,65.787 959.785,65.773 959.889,65.764C959.966,65.761 959.966,65.761 960.043,65.763C960.277,65.779 960.5,65.835 960.706,65.949C960.841,66.024 960.965,66.12 961.071,66.233C961.159,66.327 961.235,66.432 961.297,66.545C961.52,66.956 961.537,67.46 961.343,67.885C961.257,68.073 961.132,68.242 960.979,68.379C960.921,68.431 960.859,68.476 960.795,68.52C960.53,68.682 960.264,68.843 959.998,69.003C960.254,69.156 960.509,69.309 960.765,69.462C960.945,69.576 961.101,69.722 961.221,69.899C961.332,70.063 961.41,70.25 961.449,70.444C961.486,70.624 961.488,70.811 961.457,70.993C961.362,71.545 960.954,72.009 960.418,72.173C960.269,72.219 960.113,72.241 959.957,72.239C959.729,72.236 959.508,72.178 959.303,72.079C958.519,71.669 957.755,71.219 956.995,70.765C955.684,71.518 954.366,72.26 953.051,73.006C954.364,73.754 955.667,74.518 956.97,75.285C957.726,74.837 958.498,74.415 959.266,73.986C959.456,73.886 959.658,73.828 959.873,73.809C959.929,73.806 959.985,73.805 960.042,73.807C960.256,73.819 960.463,73.87 960.654,73.966C960.806,74.043 960.944,74.145 961.062,74.268C961.429,74.651 961.567,75.215 961.419,75.725C961.379,75.86 961.321,75.991 961.245,76.11C961.122,76.303 960.957,76.461 960.765,76.583C960.503,76.739 960.24,76.895 959.977,77.049C960.227,77.195 960.478,77.34 960.729,77.485C960.928,77.607 961.1,77.76 961.23,77.957C961.33,78.107 961.402,78.276 961.441,78.452C961.481,78.627 961.489,78.81 961.465,78.989C961.389,79.533 961.011,80.002 960.496,80.192C960.351,80.245 960.197,80.276 960.043,80.282C959.863,80.29 959.682,80.265 959.51,80.209C959.436,80.184 959.367,80.153 959.297,80.119C959.022,79.971 958.749,79.82 958.476,79.669C958.474,79.969 958.47,80.268 958.466,80.568C958.456,80.78 958.409,80.987 958.315,81.179C958.229,81.356 958.108,81.515 957.961,81.645C957.826,81.766 957.668,81.861 957.499,81.925C957.357,81.979 957.208,82.011 957.057,82.02C956.922,82.028 956.785,82.018 956.652,81.989C956.22,81.896 955.844,81.611 955.638,81.22C955.532,81.017 955.478,80.796 955.467,80.568C955.454,79.697 955.451,78.825 955.457,77.954C954.148,77.195 952.846,76.425 951.542,75.658C951.552,77.169 951.541,78.68 951.527,80.19C952.293,80.621 953.044,81.079 953.798,81.528C953.979,81.643 954.135,81.788 954.255,81.966C954.366,82.13 954.444,82.316 954.483,82.511C954.519,82.691 954.522,82.878 954.49,83.059C954.464,83.213 954.414,83.362 954.342,83.5C954.082,83.997 953.551,84.314 952.991,84.306C952.762,84.302 952.542,84.245 952.337,84.145C952.056,83.999 951.778,83.847 951.502,83.692C951.501,83.976 951.5,84.26 951.5,84.545C951.498,84.618 951.499,84.637 951.491,84.71C951.473,84.874 951.427,85.035 951.357,85.185C951.274,85.359 951.158,85.518 951.016,85.648C950.915,85.742 950.8,85.821 950.677,85.883C950.204,86.123 949.624,86.091 949.18,85.801C949.041,85.71 948.918,85.597 948.816,85.466C948.681,85.292 948.585,85.088 948.536,84.873C948.518,84.791 948.509,84.71 948.502,84.627C948.494,84.315 948.486,84.004 948.48,83.692C948.221,83.836 947.961,83.981 947.701,84.126C947.499,84.231 947.28,84.295 947.052,84.304C946.896,84.311 946.74,84.293 946.59,84.252C946.049,84.103 945.628,83.651 945.517,83.101C945.481,82.921 945.479,82.734 945.51,82.552C945.543,82.357 945.616,82.169 945.722,82.001C945.837,81.821 945.989,81.671 946.166,81.551C946.912,81.077 947.682,80.641 948.455,80.21C948.458,78.698 948.475,77.186 948.487,75.673C947.18,76.439 945.862,77.187 944.543,77.934C944.549,78.812 944.546,79.69 944.533,80.568C944.523,80.78 944.475,80.987 944.382,81.179C944.296,81.356 944.175,81.515 944.028,81.645C943.892,81.766 943.735,81.861 943.565,81.925C943.424,81.979 943.275,82.011 943.124,82.02C942.683,82.046 942.244,81.872 941.941,81.551C941.848,81.452 941.768,81.34 941.705,81.22C941.599,81.017 941.544,80.796 941.534,80.568C941.529,80.262 941.526,79.956 941.524,79.65C941.273,79.794 941.022,79.938 940.771,80.083C940.565,80.194 940.346,80.267 940.111,80.281C939.931,80.292 939.75,80.27 939.577,80.216C939.405,80.163 939.243,80.078 939.101,79.968C938.667,79.631 938.45,79.068 938.543,78.527C938.57,78.375 938.62,78.227 938.691,78.09C938.775,77.93 938.887,77.786 939.021,77.665C939.079,77.614 939.141,77.569 939.205,77.525C939.47,77.363 939.736,77.202 940.002,77.042C939.746,76.889 939.491,76.735 939.235,76.583C939.055,76.468 938.898,76.323 938.779,76.146C938.683,76.005 938.613,75.848 938.57,75.684C938.534,75.547 938.518,75.405 938.522,75.263C938.537,74.733 938.841,74.238 939.308,73.986C939.509,73.877 939.73,73.82 939.958,73.807C940,73.806 940,73.806 940.043,73.806C940.287,73.813 940.518,73.873 940.734,73.986C941.494,74.41 942.249,74.843 943,75.283C944.313,74.528 945.632,73.785 946.949,73.038C945.636,72.291 944.333,71.526 943.03,70.76C942.274,71.208 941.502,71.63 940.734,72.059C940.532,72.164 940.313,72.228 940.085,72.238C939.929,72.244 939.773,72.227 939.623,72.185C939.082,72.036 938.661,71.584 938.551,71.034C938.514,70.854 938.512,70.667 938.543,70.486C938.576,70.29 938.649,70.102 938.755,69.935C938.87,69.754 939.022,69.604 939.199,69.485C939.466,69.315 939.737,69.15 940.009,68.988C939.764,68.845 939.518,68.702 939.271,68.56C939.071,68.438 938.899,68.284 938.77,68.088C938.684,67.959 938.619,67.817 938.578,67.668C938.536,67.519 938.517,67.364 938.522,67.21C938.538,66.742 938.779,66.299 939.163,66.031C939.332,65.913 939.525,65.831 939.727,65.79C939.803,65.775 939.879,65.768 939.957,65.763C940.035,65.761 940.034,65.761 940.111,65.764C940.215,65.773 940.316,65.787 940.416,65.814C940.516,65.841 940.61,65.881 940.703,65.925C940.978,66.074 941.251,66.224 941.524,66.375C941.526,66.076 941.529,65.776 941.534,65.477C941.541,65.325 941.566,65.177 941.615,65.033C941.749,64.645 942.043,64.323 942.418,64.154C942.57,64.086 942.731,64.046 942.898,64.028C942.958,64.024 943.018,64.022 943.079,64.023C943.245,64.03 943.409,64.06 943.565,64.12C943.964,64.271 944.285,64.592 944.436,64.99C944.495,65.147 944.525,65.31 944.533,65.477C944.546,66.348 944.549,67.22 944.543,68.091C945.852,68.85 947.154,69.62 948.458,70.386Z" style="" fill="black"/></g></g></g></g><text x="0" y="115" fill="#000000" font-size="5px" font-weight="bold" font-family="'Helvetica Neue', Helvetica, Arial-Unicode, Arial, Sans-serif">Created by Sébastien Robaszkiewicz</text><text x="0" y="120" fill="#000000" font-size="5px" font-weight="bold" font-family="'Helvetica Neue', Helvetica, Arial-Unicode, Arial, Sans-serif">from the Noun Project</text></svg>