<svg xmlns="http://www.w3.org/2000/svg" xmlns:xlink="http://www.w3.org/1999/xlink" viewBox="0 0 100 125" version="1.1" xml:space="preserve" style="" x="0px" y="0px" fill-rule="evenodd" clip-rule="evenodd" stroke-linejoin="round" stroke-miterlimit="1.41421"><g transform="matrix(1,0,0,1,-1350,-0)"><clipPath id="a"><rect x="1350" y="0" width="100" height="100"/></clipPath><g clip-path="url(#a)"><g transform="matrix(1,0,0,1,150,4.94305)"><g transform="matrix(0.932412,0,0,0.932412,511.993,5.41382)"><path d="M801.979,67.473C802.181,67.252 802.466,67.127 802.764,67.127C803.063,67.128 803.347,67.254 803.548,67.474C805.421,69.513 810.004,74.891 810.004,78.713C810.004,82.709 806.76,85.953 802.765,85.953C798.769,85.953 795.525,82.709 795.525,78.713C795.525,74.86 800.105,69.503 801.979,67.473Z" style="" fill="black"/></g><g transform="matrix(1,0,0,1,-150,-7.46789)"><path d="M1379.1,64.344C1377.82,63.573 1376.62,62.659 1375.53,61.624C1373.77,59.941 1372.31,57.942 1371.25,55.747C1370.35,53.871 1369.74,51.857 1369.45,49.796C1369.16,47.755 1369.19,45.67 1369.52,43.638C1369.84,41.751 1370.42,39.912 1371.25,38.189C1372.27,36.066 1373.67,34.127 1375.36,32.481C1376.99,30.89 1378.88,29.576 1380.94,28.612C1382.68,27.802 1384.53,27.241 1386.42,26.951C1387.01,26.861 1387.61,26.797 1388.2,26.759C1388.55,26.737 1388.89,26.726 1389.24,26.719C1389.5,26.718 1389.5,26.718 1389.76,26.719C1390.11,26.726 1390.45,26.737 1390.8,26.759C1391.39,26.797 1391.99,26.861 1392.58,26.951C1394.47,27.241 1396.32,27.802 1398.06,28.612C1399.9,29.473 1401.61,30.614 1403.11,31.981C1404.92,33.62 1406.42,35.582 1407.53,37.75C1408.3,39.25 1408.88,40.845 1409.25,42.488C1410.57,41.752 1411.99,41.181 1413.45,40.799C1414.4,40.552 1415.36,40.383 1416.34,40.294C1416.84,40.248 1417.33,40.225 1417.83,40.219C1418.03,40.218 1418.03,40.218 1418.23,40.219C1418.92,40.232 1419.61,40.276 1420.29,40.362C1421.69,40.541 1423.07,40.886 1424.39,41.389C1426.23,42.086 1427.94,43.084 1429.45,44.331C1430.89,45.523 1432.15,46.94 1433.16,48.516C1434.15,50.054 1434.9,51.743 1435.38,53.507C1435.75,54.892 1435.96,56.321 1435.99,57.755C1436.01,58.458 1435.99,59.159 1435.93,59.859L1435.92,59.936C1436.05,59.988 1436.18,60.042 1436.31,60.097C1436.46,60.159 1436.6,60.223 1436.74,60.288C1437.17,60.488 1437.58,60.704 1437.99,60.943C1438.88,61.468 1439.71,62.09 1440.46,62.794C1441.48,63.744 1442.36,64.844 1443.07,66.047C1443.75,67.227 1444.27,68.505 1444.59,69.831C1445.01,71.527 1445.11,73.298 1444.88,75.029C1444.71,76.427 1444.32,77.798 1443.74,79.082C1443.06,80.595 1442.1,81.984 1440.94,83.172C1439.7,84.44 1438.23,85.476 1436.62,86.207C1435.38,86.763 1434.08,87.142 1432.74,87.33C1432.14,87.414 1431.54,87.455 1430.93,87.467C1428.11,87.485 1425.29,87.499 1422.46,87.51C1422.05,87.511 1421.67,87.253 1421.52,86.861C1421.17,85.91 1420.49,84.118 1420.03,82.876C1419.91,82.57 1419.95,82.227 1420.14,81.957C1420.32,81.688 1420.63,81.526 1420.96,81.525C1422.86,81.515 1426.48,81.495 1430.86,81.467C1431.24,81.46 1431.63,81.431 1432.01,81.373C1432.78,81.255 1433.53,81.027 1434.23,80.698C1435.19,80.249 1436.07,79.612 1436.79,78.836C1437.47,78.106 1438.01,77.255 1438.39,76.333C1438.73,75.511 1438.93,74.635 1438.98,73.75C1439.04,72.852 1438.95,71.946 1438.72,71.077C1438.51,70.288 1438.18,69.532 1437.74,68.84C1436.99,67.646 1435.94,66.651 1434.7,65.974C1433.92,65.549 1433.08,65.258 1432.21,65.097L1432.12,65.081L1428.75,64.536C1429.06,63.373 1429.38,62.214 1429.66,61.046C1430.03,59.522 1430.1,57.937 1429.86,56.388C1429.69,55.269 1429.36,54.177 1428.88,53.151C1428.27,51.84 1427.41,50.644 1426.38,49.633C1425.31,48.588 1424.05,47.743 1422.67,47.16C1421.76,46.776 1420.8,46.505 1419.83,46.356C1419.38,46.287 1418.92,46.247 1418.46,46.227C1418.27,46.221 1418.08,46.218 1417.89,46.218C1416.76,46.234 1415.64,46.396 1414.56,46.72C1412.31,47.394 1410.28,48.741 1408.78,50.543C1408.15,51.294 1407.62,52.12 1407.19,52.998L1405.63,56.251C1404.61,55.556 1403.6,54.843 1402.57,54.166C1402.47,54.104 1402.37,54.044 1402.27,53.986C1401.71,53.662 1401.11,53.406 1400.49,53.234C1398.94,52.808 1397.25,52.896 1395.75,53.487C1395.08,53.754 1394.44,54.119 1393.87,54.567C1393.23,55.069 1392.68,55.675 1392.23,56.354C1391.78,57.039 1391.44,57.798 1391.24,58.593C1390.98,59.577 1390.94,60.605 1391.09,61.609L1391.55,64.554C1390.54,64.752 1389.53,64.94 1388.52,65.149C1388.4,65.175 1388.29,65.203 1388.17,65.232C1387.4,65.438 1386.66,65.748 1385.97,66.164C1384.8,66.879 1383.81,67.89 1383.11,69.08C1382.69,69.797 1382.39,70.577 1382.2,71.387C1382.01,72.228 1381.96,73.1 1382.03,73.96C1382.11,74.808 1382.32,75.642 1382.65,76.427C1383.04,77.343 1383.59,78.188 1384.28,78.908C1385.01,79.676 1385.89,80.302 1386.86,80.74C1387.57,81.061 1388.32,81.28 1389.09,81.388C1389.44,81.436 1389.79,81.46 1390.14,81.467C1394.53,81.495 1398.14,81.515 1400.04,81.525C1400.37,81.526 1400.67,81.688 1400.86,81.958C1401.05,82.228 1401.09,82.571 1400.97,82.878C1400.5,84.121 1399.83,85.914 1399.47,86.863C1399.32,87.248 1398.96,87.505 1398.55,87.51C1397.6,87.508 1395.37,87.5 1390.07,87.467C1389.46,87.455 1388.86,87.414 1388.26,87.33C1386.92,87.142 1385.62,86.763 1384.38,86.207C1382.77,85.476 1381.29,84.44 1380.06,83.171C1378.86,81.942 1377.88,80.498 1377.19,78.925C1376.6,77.576 1376.22,76.136 1376.07,74.671C1375.93,73.289 1375.99,71.886 1376.26,70.521C1376.56,68.954 1377.12,67.441 1377.93,66.062C1378.28,65.461 1378.67,64.887 1379.1,64.344ZM1370.45,63.06C1370.87,63.071 1371.27,63.157 1371.65,63.328C1371.95,63.464 1372.22,63.649 1372.46,63.874C1372.67,64.071 1372.85,64.298 1373,64.546C1373.46,65.334 1373.53,66.309 1373.2,67.158C1373.06,67.523 1372.84,67.852 1372.57,68.137C1371.49,69.238 1370.4,70.328 1369.3,71.406C1369.02,71.675 1368.69,71.89 1368.32,72.034C1368.06,72.139 1367.77,72.205 1367.49,72.23C1366.6,72.308 1365.71,71.977 1365.08,71.341C1364.85,71.106 1364.66,70.834 1364.52,70.537C1364.36,70.204 1364.26,69.841 1364.24,69.473C1364.2,69.083 1364.25,68.689 1364.37,68.318C1364.51,67.905 1364.73,67.531 1365.02,67.209C1366.09,66.072 1367.21,64.988 1368.33,63.895C1368.72,63.527 1369.2,63.263 1369.72,63.139C1369.92,63.092 1370.12,63.068 1370.33,63.061C1370.39,63.06 1370.39,63.06 1370.45,63.06ZM1403.75,47.228C1403.77,46.236 1403.68,45.243 1403.5,44.269C1403.23,42.898 1402.76,41.568 1402.11,40.333C1401.34,38.866 1400.31,37.537 1399.08,36.421C1398.02,35.458 1396.81,34.655 1395.52,34.048C1394.3,33.479 1393,33.086 1391.67,32.882C1391.01,32.782 1390.35,32.732 1389.68,32.719C1389.5,32.718 1389.5,32.718 1389.32,32.719C1388.65,32.732 1387.99,32.782 1387.33,32.882C1386,33.086 1384.7,33.479 1383.48,34.048C1382.13,34.679 1380.89,35.523 1379.8,36.537C1378.58,37.668 1377.57,39.009 1376.81,40.486C1376.2,41.677 1375.76,42.955 1375.51,44.269C1375.21,45.813 1375.17,47.406 1375.39,48.962C1375.59,50.41 1376.02,51.824 1376.65,53.141C1377.4,54.688 1378.43,56.096 1379.67,57.281C1380.96,58.508 1382.47,59.492 1384.12,60.165C1384.19,60.195 1384.26,60.224 1384.34,60.253C1384.56,60.151 1384.78,60.055 1385.01,59.965C1385.01,59.844 1385.02,59.724 1385.03,59.604C1385.06,59.094 1385.12,58.586 1385.21,58.082C1385.42,56.936 1385.77,55.818 1386.26,54.763C1386.84,53.535 1387.6,52.395 1388.51,51.392C1389.34,50.472 1390.31,49.669 1391.36,49.011C1392.53,48.284 1393.8,47.736 1395.13,47.393C1396.69,46.99 1398.33,46.873 1399.94,47.044C1401.08,47.165 1402.2,47.437 1403.28,47.84L1403.29,47.845C1403.39,47.707 1403.49,47.571 1403.59,47.435C1403.64,47.366 1403.69,47.297 1403.75,47.228ZM1362.57,43.969C1363.01,43.985 1363.44,44.086 1363.84,44.283C1364.19,44.457 1364.5,44.7 1364.76,44.993C1365,45.268 1365.19,45.587 1365.32,45.93C1365.62,46.76 1365.54,47.702 1365.1,48.468C1364.96,48.7 1364.8,48.914 1364.61,49.102C1364.38,49.325 1364.12,49.511 1363.84,49.652C1363.44,49.85 1363.01,49.951 1362.57,49.967C1361.02,49.986 1359.48,49.986 1357.93,49.967C1357.49,49.951 1357.06,49.85 1356.66,49.652C1356.31,49.478 1356,49.236 1355.74,48.942C1355.5,48.667 1355.31,48.348 1355.18,48.005C1355.08,47.708 1355.01,47.394 1355,47.077C1354.99,46.81 1355.02,46.541 1355.08,46.28C1355.28,45.42 1355.87,44.678 1356.66,44.283C1357.06,44.086 1357.49,43.985 1357.93,43.969C1359.48,43.95 1361.02,43.95 1362.57,43.969ZM1411.82,21.694C1412.21,21.704 1412.6,21.782 1412.96,21.937C1413.22,22.051 1413.47,22.202 1413.69,22.386C1414.39,22.968 1414.8,23.86 1414.77,24.771C1414.76,25.1 1414.7,25.426 1414.59,25.735C1414.44,26.122 1414.22,26.471 1413.94,26.771C1412.86,27.872 1411.77,28.962 1410.67,30.04C1410.35,30.337 1409.99,30.568 1409.57,30.711C1409.21,30.838 1408.81,30.893 1408.42,30.871C1408.05,30.85 1407.69,30.761 1407.35,30.608C1407.05,30.472 1406.78,30.287 1406.54,30.062C1406.33,29.865 1406.15,29.638 1406,29.389C1405.55,28.62 1405.47,27.671 1405.78,26.835C1405.91,26.467 1406.12,26.134 1406.38,25.844C1407.45,24.706 1408.58,23.622 1409.7,22.53C1409.85,22.389 1410.01,22.261 1410.18,22.152C1410.64,21.866 1411.16,21.714 1411.7,21.695C1411.76,21.694 1411.76,21.694 1411.82,21.694ZM1367.3,21.695C1367.51,21.702 1367.71,21.727 1367.91,21.774C1368.44,21.897 1368.91,22.162 1369.3,22.53C1370.4,23.608 1371.49,24.698 1372.57,25.799C1372.84,26.084 1373.06,26.413 1373.2,26.778C1373.31,27.046 1373.37,27.328 1373.4,27.615C1373.47,28.502 1373.14,29.396 1372.51,30.019C1372.27,30.249 1372,30.44 1371.7,30.582C1371.37,30.741 1371.01,30.839 1370.64,30.867C1370.25,30.897 1369.86,30.85 1369.48,30.73C1369.07,30.596 1368.7,30.373 1368.38,30.083C1367.24,29.013 1366.15,27.887 1365.06,26.771C1364.78,26.471 1364.56,26.122 1364.41,25.735C1364.31,25.446 1364.24,25.14 1364.23,24.833C1364.22,24.545 1364.24,24.256 1364.31,23.977C1364.52,23.154 1365.07,22.441 1365.82,22.044C1366.2,21.84 1366.62,21.728 1367.06,21.699C1367.14,21.695 1367.22,21.694 1367.3,21.695ZM1389.54,12.468C1389.88,12.476 1390.22,12.534 1390.54,12.653C1391.37,12.959 1392.03,13.632 1392.33,14.465C1392.43,14.765 1392.49,15.077 1392.5,15.395C1392.52,16.943 1392.52,18.492 1392.5,20.041C1392.48,20.481 1392.38,20.912 1392.18,21.307C1392.01,21.656 1391.77,21.97 1391.48,22.226C1391.2,22.467 1390.88,22.656 1390.54,22.783C1390.24,22.892 1389.93,22.954 1389.61,22.966C1389.34,22.976 1389.07,22.949 1388.81,22.888C1387.95,22.685 1387.21,22.098 1386.82,21.307C1386.62,20.912 1386.52,20.481 1386.5,20.041C1386.48,18.492 1386.48,16.943 1386.5,15.395C1386.51,15.053 1386.58,14.717 1386.7,14.396C1386.99,13.641 1387.58,13.023 1388.33,12.707C1388.62,12.582 1388.93,12.51 1389.25,12.479C1389.34,12.472 1389.44,12.468 1389.54,12.468Z" style="" fill="black"/></g></g></g></g><text x="0" y="115" fill="#000000" font-size="5px" font-weight="bold" font-family="'Helvetica Neue', Helvetica, Arial-Unicode, Arial, Sans-serif">Created by Sébastien Robaszkiewicz</text><text x="0" y="120" fill="#000000" font-size="5px" font-weight="bold" font-family="'Helvetica Neue', Helvetica, Arial-Unicode, Arial, Sans-serif">from the Noun Project</text></svg>