<?xml version="1.0" encoding="utf-8"?>
<!-- Generator: Adobe Illustrator 21.1.0, SVG Export Plug-In . SVG Version: 6.00 Build 0)  -->
<svg version="1.1" id="Layer_1" xmlns="http://www.w3.org/2000/svg" xmlns:xlink="http://www.w3.org/1999/xlink" x="0px" y="0px"
	 viewBox="0 0 100 100" style="enable-background:new 0 0 100 100;" xml:space="preserve">
<style type="text/css">
	.st0{clip-path:url(#SVGID_2_);}
</style>
<g transform="matrix(1,0,0,1,-1200,-0)">
	<g>
		<defs>
			<rect id="SVGID_1_" x="1200" width="100" height="100"/>
		</defs>
		<clipPath id="SVGID_2_">
			<use xlink:href="#SVGID_1_"  style="overflow:visible;"/>
		</clipPath>
		<g class="st0">
			<g transform="matrix(1,0,0,1,-3.30228e-05,4.936)">
				<path d="M1229.1,56.9c-1.3-0.8-2.5-1.7-3.6-2.7c-1.8-1.7-3.2-3.7-4.3-5.9c-0.9-1.9-1.5-3.9-1.8-6c-0.3-2-0.3-4.1,0.1-6.2
					c0.3-1.9,0.9-3.7,1.7-5.4c1-2.1,2.4-4.1,4.1-5.7c1.6-1.6,3.5-2.9,5.6-3.9c1.7-0.8,3.6-1.4,5.5-1.7c0.6-0.1,1.2-0.2,1.8-0.2
					c0.4,0,0.7,0,1,0c0.3,0,0.3,0,0.5,0c0.3,0,0.7,0,1,0c0.6,0,1.2,0.1,1.8,0.2c1.9,0.3,3.7,0.9,5.5,1.7c1.8,0.9,3.5,2,5,3.4
					c1.8,1.6,3.3,3.6,4.4,5.8c0.8,1.5,1.3,3.1,1.7,4.7c1.3-0.7,2.7-1.3,4.2-1.7c1-0.2,1.9-0.4,2.9-0.5c0.5,0,1-0.1,1.5-0.1
					c0.2,0,0.2,0,0.4,0c0.7,0,1.4,0.1,2.1,0.1c1.4,0.2,2.8,0.5,4.1,1c1.8,0.7,3.5,1.7,5.1,2.9c1.4,1.2,2.7,2.6,3.7,4.2
					c1,1.5,1.7,3.2,2.2,5c0.4,1.4,0.6,2.8,0.6,4.2c0,0.7,0,1.4-0.1,2.1l0,0.1c0.1,0.1,0.3,0.1,0.4,0.2c0.1,0.1,0.3,0.1,0.4,0.2
					c0.4,0.2,0.8,0.4,1.2,0.7c0.9,0.5,1.7,1.1,2.5,1.9c1,1,1.9,2,2.6,3.3c0.7,1.2,1.2,2.5,1.5,3.8c0.4,1.7,0.5,3.5,0.3,5.2
					c-0.2,1.4-0.6,2.8-1.2,4.1c-0.7,1.5-1.6,2.9-2.8,4.1c-1.2,1.3-2.7,2.3-4.3,3c-1.2,0.6-2.5,0.9-3.9,1.1c-0.6,0.1-1.2,0.1-1.8,0.1
					c-13.6,0.1-27.2,0.1-40.9,0c-0.6,0-1.2-0.1-1.8-0.1c-1.3-0.2-2.6-0.6-3.9-1.1c-1.6-0.7-3.1-1.8-4.3-3c-1.2-1.2-2.2-2.7-2.9-4.2
					c-0.6-1.3-1-2.8-1.1-4.3c-0.1-1.4-0.1-2.8,0.2-4.2c0.3-1.6,0.9-3.1,1.7-4.5C1228.3,58,1228.7,57.4,1229.1,56.9z M1267.9,38.8
					c-1.1,0-2.2,0.2-3.3,0.5c-2.2,0.7-4.3,2-5.8,3.8c-0.6,0.8-1.2,1.6-1.6,2.5l-1.6,3.3c-1-0.7-2-1.4-3.1-2.1
					c-0.1-0.1-0.2-0.1-0.3-0.2c-0.6-0.3-1.2-0.6-1.8-0.8c-1.6-0.4-3.2-0.3-4.7,0.3c-0.7,0.3-1.3,0.6-1.9,1.1
					c-0.6,0.5-1.2,1.1-1.6,1.8c-0.4,0.7-0.8,1.4-1,2.2c-0.3,1-0.3,2-0.2,3l0.5,2.9c-1,0.2-2,0.4-3,0.6c-0.1,0-0.2,0.1-0.3,0.1
					c-0.8,0.2-1.5,0.5-2.2,0.9c-1.2,0.7-2.2,1.7-2.9,2.9c-0.4,0.7-0.7,1.5-0.9,2.3c-0.2,0.8-0.2,1.7-0.2,2.6
					c0.1,0.8,0.3,1.7,0.6,2.5c0.4,0.9,0.9,1.8,1.6,2.5c0.7,0.8,1.6,1.4,2.6,1.8c0.7,0.3,1.5,0.5,2.2,0.6c0.3,0,0.7,0.1,1.1,0.1
					c13.6,0.1,27.2,0.1,40.7,0c0.4,0,0.8,0,1.2-0.1c0.8-0.1,1.5-0.3,2.2-0.7c1-0.4,1.8-1.1,2.6-1.9c0.7-0.7,1.2-1.6,1.6-2.5
					c0.3-0.8,0.5-1.7,0.6-2.6c0.1-0.9,0-1.8-0.3-2.7c-0.2-0.8-0.5-1.5-1-2.2c-0.8-1.2-1.8-2.2-3-2.9c-0.8-0.4-1.6-0.7-2.5-0.9
					l-0.1,0l-3.4-0.5c0.3-1.2,0.6-2.3,0.9-3.5c0.4-1.5,0.4-3.1,0.2-4.7c-0.2-1.1-0.5-2.2-1-3.2c-0.6-1.3-1.5-2.5-2.5-3.5
					c-1.1-1-2.3-1.9-3.7-2.5c-0.9-0.4-1.9-0.7-2.8-0.8c-0.4-0.1-0.9-0.1-1.4-0.1C1268.3,38.8,1268.1,38.8,1267.9,38.8z M1220.4,55.6
					c0.4,0,0.8,0.1,1.2,0.3c0.3,0.1,0.6,0.3,0.8,0.5c0.2,0.2,0.4,0.4,0.5,0.7c0.5,0.8,0.5,1.8,0.2,2.6c-0.1,0.4-0.4,0.7-0.6,1
					c-1.1,1.1-2.2,2.2-3.3,3.3c-0.3,0.3-0.6,0.5-1,0.6c-0.3,0.1-0.5,0.2-0.8,0.2c-0.9,0.1-1.8-0.3-2.4-0.9c-0.2-0.2-0.4-0.5-0.6-0.8
					c-0.2-0.3-0.3-0.7-0.3-1.1c0-0.4,0-0.8,0.1-1.2c0.1-0.4,0.4-0.8,0.7-1.1c1.1-1.1,2.2-2.2,3.3-3.3c0.4-0.4,0.9-0.6,1.4-0.8
					c0.2,0,0.4-0.1,0.6-0.1C1220.4,55.6,1220.4,55.6,1220.4,55.6z M1253.8,39.8c0-1-0.1-2-0.2-3c-0.3-1.4-0.7-2.7-1.4-3.9
					c-0.8-1.5-1.8-2.8-3-3.9c-1.1-1-2.3-1.8-3.6-2.4c-1.2-0.6-2.5-1-3.8-1.2c-0.7-0.1-1.3-0.1-2-0.2c-0.2,0-0.2,0-0.4,0
					c-0.7,0-1.3,0.1-2,0.2c-1.3,0.2-2.6,0.6-3.8,1.2c-1.3,0.6-2.6,1.5-3.7,2.5c-1.2,1.1-2.2,2.5-3,3.9c-0.6,1.2-1.1,2.5-1.3,3.8
					c-0.3,1.5-0.3,3.1-0.1,4.7c0.2,1.4,0.6,2.9,1.3,4.2c0.8,1.5,1.8,3,3,4.1c1.3,1.2,2.8,2.2,4.4,2.9c0.1,0,0.1,0.1,0.2,0.1
					c0.2-0.1,0.4-0.2,0.7-0.3c0-0.1,0-0.2,0-0.4c0-0.5,0.1-1,0.2-1.5c0.2-1.1,0.6-2.3,1.1-3.3c0.6-1.2,1.3-2.4,2.2-3.4
					c0.8-0.9,1.8-1.7,2.8-2.4c1.2-0.7,2.4-1.3,3.8-1.6c1.6-0.4,3.2-0.5,4.8-0.3c1.1,0.1,2.3,0.4,3.3,0.8l0,0
					c0.1-0.1,0.2-0.3,0.3-0.4C1253.6,39.9,1253.7,39.8,1253.8,39.8z M1212.6,36.5c0.4,0,0.9,0.1,1.3,0.3c0.3,0.2,0.7,0.4,0.9,0.7
					c0.2,0.3,0.4,0.6,0.6,0.9c0.3,0.8,0.2,1.8-0.2,2.5c-0.1,0.2-0.3,0.4-0.5,0.6c-0.2,0.2-0.5,0.4-0.8,0.6c-0.4,0.2-0.8,0.3-1.3,0.3
					c-1.5,0-3.1,0-4.6,0c-0.4,0-0.9-0.1-1.3-0.3c-0.3-0.2-0.7-0.4-0.9-0.7c-0.2-0.3-0.4-0.6-0.6-0.9c-0.1-0.3-0.2-0.6-0.2-0.9
					c0-0.3,0-0.5,0.1-0.8c0.2-0.9,0.8-1.6,1.6-2c0.4-0.2,0.8-0.3,1.3-0.3C1209.5,36.5,1211,36.5,1212.6,36.5z M1261.8,14.2
					c0.4,0,0.8,0.1,1.1,0.2c0.3,0.1,0.5,0.3,0.7,0.4c0.7,0.6,1.1,1.5,1.1,2.4c0,0.3-0.1,0.7-0.2,1c-0.2,0.4-0.4,0.7-0.7,1
					c-1.1,1.1-2.2,2.2-3.3,3.3c-0.3,0.3-0.7,0.5-1.1,0.7c-0.4,0.1-0.8,0.2-1.1,0.2c-0.4,0-0.7-0.1-1.1-0.3c-0.3-0.1-0.6-0.3-0.8-0.5
					c-0.2-0.2-0.4-0.4-0.5-0.7c-0.4-0.8-0.5-1.7-0.2-2.6c0.1-0.4,0.3-0.7,0.6-1c1.1-1.1,2.2-2.2,3.3-3.3c0.2-0.1,0.3-0.3,0.5-0.4
					c0.5-0.3,1-0.4,1.5-0.5C1261.8,14.2,1261.8,14.2,1261.8,14.2z M1217.3,14.2c0.2,0,0.4,0,0.6,0.1c0.5,0.1,1,0.4,1.4,0.8
					c1.1,1.1,2.2,2.2,3.3,3.3c0.3,0.3,0.5,0.6,0.6,1c0.1,0.3,0.2,0.6,0.2,0.8c0.1,0.9-0.3,1.8-0.9,2.4c-0.2,0.2-0.5,0.4-0.8,0.6
					c-0.3,0.2-0.7,0.3-1.1,0.3c-0.4,0-0.8,0-1.2-0.1c-0.4-0.1-0.8-0.4-1.1-0.6c-1.1-1.1-2.2-2.2-3.3-3.3c-0.3-0.3-0.5-0.6-0.7-1
					c-0.1-0.3-0.2-0.6-0.2-0.9c0-0.3,0-0.6,0.1-0.9c0.2-0.8,0.8-1.5,1.5-1.9c0.4-0.2,0.8-0.3,1.2-0.3
					C1217.1,14.2,1217.2,14.2,1217.3,14.2z M1239.5,5c0.3,0,0.7,0.1,1,0.2c0.8,0.3,1.5,1,1.8,1.8c0.1,0.3,0.2,0.6,0.2,0.9
					c0,1.5,0,3.1,0,4.6c0,0.4-0.1,0.9-0.3,1.3c-0.2,0.3-0.4,0.7-0.7,0.9c-0.3,0.2-0.6,0.4-0.9,0.6c-0.3,0.1-0.6,0.2-0.9,0.2
					c-0.3,0-0.5,0-0.8-0.1c-0.9-0.2-1.6-0.8-2-1.6c-0.2-0.4-0.3-0.8-0.3-1.3c0-1.5,0-3.1,0-4.6c0-0.3,0.1-0.7,0.2-1
					c0.3-0.8,0.9-1.4,1.6-1.7c0.3-0.1,0.6-0.2,0.9-0.2C1239.3,5,1239.4,5,1239.5,5z"/>
			</g>
		</g>
	</g>
</g>
</svg>
