<svg xmlns="http://www.w3.org/2000/svg" xmlns:xlink="http://www.w3.org/1999/xlink" viewBox="0 0 100 125" version="1.1" xml:space="preserve" style="" x="0px" y="0px" fill-rule="evenodd" clip-rule="evenodd" stroke-linejoin="round" stroke-miterlimit="1.41421"><g transform="matrix(1,0,0,1,-1200,-0)"><clipPath id="a"><rect x="1200" y="0" width="100" height="100"/></clipPath><g clip-path="url(#a)"><g transform="matrix(1,0,0,1,-3.30228e-05,4.936)"><path d="M1229.1,56.876C1227.82,56.105 1226.62,55.191 1225.53,54.156C1223.77,52.474 1222.31,50.475 1221.25,48.279C1220.35,46.403 1219.74,44.389 1219.45,42.328C1219.16,40.287 1219.19,38.202 1219.52,36.17C1219.84,34.284 1220.42,32.444 1221.25,30.721C1222.27,28.598 1223.67,26.659 1225.36,25.013C1226.99,23.422 1228.88,22.108 1230.94,21.144C1232.68,20.334 1234.53,19.773 1236.42,19.483C1237.01,19.393 1237.61,19.329 1238.2,19.291C1238.55,19.269 1238.89,19.258 1239.24,19.252C1239.5,19.25 1239.5,19.25 1239.76,19.252C1240.11,19.258 1240.45,19.269 1240.8,19.291C1241.39,19.329 1241.99,19.393 1242.58,19.483C1244.47,19.773 1246.32,20.334 1248.06,21.144C1249.9,22.005 1251.61,23.146 1253.11,24.513C1254.92,26.152 1256.42,28.114 1257.53,30.282C1258.3,31.782 1258.88,33.377 1259.25,35.02C1260.57,34.284 1261.99,33.714 1263.45,33.331C1264.4,33.084 1265.37,32.915 1266.34,32.826C1266.84,32.78 1267.33,32.758 1267.83,32.751C1268.03,32.75 1268.03,32.75 1268.23,32.751C1268.92,32.764 1269.61,32.808 1270.29,32.895C1271.69,33.073 1273.07,33.418 1274.39,33.921C1276.23,34.618 1277.94,35.616 1279.45,36.863C1280.89,38.055 1282.15,39.472 1283.16,41.048C1284.15,42.586 1284.9,44.275 1285.38,46.039C1285.75,47.424 1285.96,48.853 1285.99,50.287C1286.01,50.99 1285.99,51.691 1285.93,52.391L1285.92,52.468C1286.05,52.52 1286.18,52.574 1286.31,52.629C1286.46,52.691 1286.6,52.755 1286.74,52.82C1287.17,53.02 1287.58,53.236 1287.99,53.475C1288.88,54 1289.71,54.622 1290.46,55.326C1291.48,56.277 1292.36,57.376 1293.07,58.579C1293.75,59.759 1294.27,61.037 1294.59,62.363C1295.01,64.059 1295.11,65.83 1294.89,67.561C1294.71,68.96 1294.32,70.33 1293.74,71.615C1293.06,73.127 1292.1,74.516 1290.94,75.704C1289.7,76.972 1288.23,78.008 1286.62,78.739C1285.38,79.295 1284.08,79.675 1282.74,79.862C1282.14,79.946 1281.54,79.987 1280.93,79.999C1267.31,80.086 1253.69,80.085 1240.07,79.999C1239.46,79.987 1238.86,79.946 1238.26,79.862C1236.92,79.675 1235.62,79.295 1234.38,78.739C1232.77,78.008 1231.29,76.972 1230.06,75.703C1228.86,74.474 1227.88,73.03 1227.19,71.457C1226.6,70.108 1226.22,68.668 1226.07,67.203C1225.93,65.821 1225.99,64.418 1226.26,63.053C1226.56,61.486 1227.12,59.973 1227.93,58.594C1228.28,57.993 1228.67,57.419 1229.1,56.876ZM1267.89,38.751C1266.76,38.766 1265.64,38.928 1264.56,39.252C1262.31,39.926 1260.28,41.273 1258.78,43.075C1258.15,43.826 1257.62,44.652 1257.19,45.53L1255.63,48.784C1254.61,48.088 1253.6,47.375 1252.57,46.698C1252.47,46.636 1252.37,46.576 1252.27,46.518C1251.71,46.194 1251.11,45.938 1250.49,45.766C1248.94,45.34 1247.25,45.428 1245.75,46.019C1245.08,46.286 1244.44,46.651 1243.87,47.099C1243.23,47.602 1242.68,48.207 1242.23,48.886C1241.78,49.571 1241.44,50.331 1241.24,51.125C1240.98,52.109 1240.94,53.137 1241.09,54.141L1241.55,57.086C1240.54,57.284 1239.53,57.472 1238.52,57.682C1238.4,57.707 1238.29,57.735 1238.17,57.765C1237.4,57.97 1236.66,58.28 1235.97,58.696C1234.8,59.412 1233.81,60.422 1233.11,61.612C1232.69,62.329 1232.39,63.11 1232.2,63.919C1232.01,64.761 1231.96,65.632 1232.03,66.492C1232.11,67.34 1232.32,68.175 1232.65,68.959C1233.04,69.876 1233.59,70.72 1234.28,71.44C1235.01,72.208 1235.89,72.835 1236.86,73.272C1237.57,73.593 1238.32,73.812 1239.09,73.92C1239.44,73.968 1239.79,73.993 1240.14,73.999C1253.71,74.085 1267.29,74.086 1280.86,73.999C1281.24,73.992 1281.63,73.963 1282.01,73.905C1282.78,73.787 1283.53,73.56 1284.23,73.23C1285.19,72.781 1286.07,72.145 1286.79,71.368C1287.47,70.638 1288.01,69.787 1288.39,68.865C1288.73,68.043 1288.93,67.168 1288.98,66.282C1289.04,65.384 1288.95,64.478 1288.72,63.609C1288.51,62.82 1288.18,62.064 1287.74,61.372C1286.99,60.178 1285.94,59.183 1284.7,58.506C1283.92,58.081 1283.08,57.79 1282.21,57.629L1282.12,57.613L1278.75,57.069C1279.06,55.905 1279.38,54.746 1279.66,53.578C1280.03,52.054 1280.1,50.469 1279.86,48.92C1279.69,47.802 1279.36,46.709 1278.88,45.683C1278.27,44.372 1277.41,43.176 1276.38,42.165C1275.31,41.12 1274.05,40.276 1272.67,39.692C1271.76,39.308 1270.8,39.038 1269.83,38.889C1269.38,38.819 1268.92,38.779 1268.46,38.759C1268.27,38.753 1268.08,38.75 1267.89,38.751ZM1220.45,55.592C1220.87,55.603 1221.27,55.689 1221.65,55.86C1221.95,55.996 1222.22,56.181 1222.46,56.406C1222.67,56.603 1222.85,56.83 1223,57.079C1223.46,57.866 1223.53,58.842 1223.2,59.69C1223.06,60.055 1222.84,60.384 1222.57,60.669C1221.49,61.77 1220.4,62.86 1219.3,63.938C1219.02,64.207 1218.69,64.422 1218.32,64.566C1218.06,64.671 1217.77,64.737 1217.49,64.762C1216.6,64.84 1215.71,64.509 1215.08,63.873C1214.85,63.639 1214.66,63.366 1214.52,63.07C1214.36,62.736 1214.26,62.373 1214.24,62.005C1214.2,61.615 1214.25,61.221 1214.37,60.85C1214.51,60.437 1214.73,60.063 1215.02,59.741C1216.09,58.604 1217.21,57.52 1218.33,56.427C1218.72,56.06 1219.2,55.795 1219.72,55.672C1219.92,55.624 1220.12,55.6 1220.33,55.593C1220.39,55.592 1220.39,55.592 1220.45,55.592ZM1253.75,39.76C1253.77,38.768 1253.68,37.775 1253.5,36.801C1253.23,35.43 1252.76,34.1 1252.11,32.865C1251.34,31.398 1250.31,30.069 1249.08,28.953C1248.02,27.99 1246.81,27.187 1245.52,26.58C1244.3,26.011 1243,25.618 1241.67,25.414C1241.01,25.314 1240.35,25.264 1239.68,25.251C1239.5,25.25 1239.5,25.25 1239.32,25.251C1238.65,25.264 1237.99,25.314 1237.33,25.414C1236,25.618 1234.7,26.011 1233.48,26.58C1232.13,27.211 1230.89,28.055 1229.8,29.07C1228.58,30.2 1227.57,31.541 1226.81,33.018C1226.2,34.209 1225.76,35.487 1225.51,36.801C1225.21,38.345 1225.17,39.938 1225.39,41.494C1225.59,42.942 1226.02,44.356 1226.65,45.673C1227.4,47.22 1228.43,48.628 1229.67,49.813C1230.96,51.04 1232.47,52.025 1234.12,52.697C1234.19,52.727 1234.26,52.756 1234.34,52.785C1234.56,52.683 1234.78,52.587 1235.01,52.497C1235.01,52.377 1235.02,52.257 1235.03,52.136C1235.06,51.626 1235.12,51.118 1235.21,50.614C1235.42,49.468 1235.77,48.35 1236.26,47.295C1236.84,46.067 1237.6,44.927 1238.51,43.924C1239.35,43.005 1240.31,42.201 1241.36,41.543C1242.53,40.816 1243.8,40.268 1245.13,39.926C1246.69,39.522 1248.33,39.405 1249.94,39.576C1251.08,39.698 1252.2,39.969 1253.28,40.372L1253.29,40.377C1253.39,40.239 1253.49,40.103 1253.59,39.967C1253.64,39.898 1253.69,39.829 1253.75,39.76ZM1212.57,36.501C1213.01,36.517 1213.44,36.618 1213.84,36.815C1214.19,36.99 1214.5,37.232 1214.76,37.525C1215,37.801 1215.19,38.12 1215.32,38.463C1215.62,39.292 1215.54,40.234 1215.1,41C1214.96,41.232 1214.8,41.446 1214.61,41.634C1214.38,41.857 1214.12,42.043 1213.84,42.185C1213.44,42.382 1213.01,42.483 1212.57,42.499C1211.02,42.518 1209.48,42.518 1207.93,42.499C1207.49,42.483 1207.06,42.382 1206.66,42.185C1206.31,42.01 1206,41.768 1205.74,41.475C1205.5,41.199 1205.31,40.88 1205.18,40.537C1205.08,40.24 1205.01,39.926 1205,39.61C1204.99,39.342 1205.02,39.073 1205.08,38.812C1205.28,37.952 1205.87,37.21 1206.66,36.815C1207.06,36.618 1207.49,36.517 1207.93,36.501C1209.48,36.482 1211.02,36.482 1212.57,36.501ZM1261.82,14.226C1262.21,14.237 1262.6,14.315 1262.96,14.469C1263.22,14.583 1263.47,14.734 1263.69,14.918C1264.39,15.501 1264.8,16.392 1264.77,17.303C1264.76,17.632 1264.7,17.958 1264.59,18.267C1264.44,18.654 1264.22,19.003 1263.94,19.303C1262.86,20.404 1261.77,21.494 1260.67,22.573C1260.35,22.869 1259.99,23.1 1259.57,23.243C1259.21,23.371 1258.81,23.425 1258.42,23.403C1258.05,23.382 1257.69,23.293 1257.35,23.14C1257.05,23.004 1256.78,22.819 1256.54,22.594C1256.33,22.397 1256.15,22.17 1256,21.921C1255.55,21.153 1255.47,20.203 1255.78,19.368C1255.91,18.999 1256.12,18.667 1256.38,18.376C1257.45,17.238 1258.58,16.154 1259.7,15.062C1259.85,14.921 1260.01,14.793 1260.18,14.684C1260.64,14.398 1261.16,14.246 1261.7,14.227C1261.76,14.226 1261.76,14.226 1261.82,14.226ZM1217.3,14.227C1217.51,14.235 1217.71,14.259 1217.91,14.306C1218.44,14.429 1218.91,14.694 1219.3,15.062C1220.4,16.14 1221.49,17.23 1222.57,18.331C1222.84,18.616 1223.06,18.945 1223.2,19.31C1223.31,19.578 1223.37,19.86 1223.4,20.147C1223.47,21.034 1223.14,21.928 1222.51,22.551C1222.27,22.781 1222,22.972 1221.7,23.114C1221.37,23.274 1221.01,23.371 1220.64,23.399C1220.25,23.429 1219.86,23.382 1219.48,23.262C1219.07,23.129 1218.7,22.905 1218.38,22.615C1217.24,21.545 1216.15,20.419 1215.06,19.303C1214.78,19.003 1214.56,18.654 1214.41,18.267C1214.31,17.978 1214.24,17.672 1214.23,17.365C1214.22,17.077 1214.24,16.789 1214.31,16.509C1214.52,15.686 1215.07,14.973 1215.82,14.576C1216.2,14.372 1216.62,14.26 1217.06,14.231C1217.14,14.227 1217.22,14.226 1217.3,14.227ZM1239.54,5C1239.88,5.009 1240.22,5.066 1240.54,5.185C1241.37,5.491 1242.03,6.164 1242.33,6.997C1242.43,7.297 1242.49,7.609 1242.5,7.927C1242.52,9.476 1242.52,11.024 1242.5,12.573C1242.48,13.014 1242.38,13.444 1242.18,13.839C1242.01,14.188 1241.77,14.502 1241.48,14.759C1241.2,14.999 1240.88,15.189 1240.54,15.315C1240.24,15.424 1239.93,15.486 1239.61,15.498C1239.34,15.508 1239.07,15.482 1238.81,15.42C1237.95,15.217 1237.21,14.63 1236.82,13.839C1236.62,13.444 1236.52,13.014 1236.5,12.573C1236.48,11.024 1236.48,9.476 1236.5,7.927C1236.51,7.585 1236.58,7.249 1236.7,6.928C1236.99,6.173 1237.58,5.555 1238.33,5.239C1238.62,5.114 1238.93,5.042 1239.25,5.011C1239.34,5.004 1239.44,5 1239.54,5Z" style="" fill="black"/></g></g></g><text x="0" y="115" fill="#000000" font-size="5px" font-weight="bold" font-family="'Helvetica Neue', Helvetica, Arial-Unicode, Arial, Sans-serif">Created by Sébastien Robaszkiewicz</text><text x="0" y="120" fill="#000000" font-size="5px" font-weight="bold" font-family="'Helvetica Neue', Helvetica, Arial-Unicode, Arial, Sans-serif">from the Noun Project</text></svg>