<svg xmlns="http://www.w3.org/2000/svg" xmlns:xlink="http://www.w3.org/1999/xlink" viewBox="0 0 100 125" version="1.1" xml:space="preserve" style="" x="0px" y="0px" fill-rule="evenodd" clip-rule="evenodd" stroke-linejoin="round" stroke-miterlimit="1.41421"><clipPath id="a"><rect x="0" y="0" width="100" height="100"/></clipPath><g clip-path="url(#a)"><g><g transform="matrix(1.98046,6.65049e-34,6.65049e-34,1.98046,-71.9428,-71.7214)"><path d="M61.658,48.333C62.298,48.339 62.937,48.387 63.57,48.484C64.744,48.664 65.893,49.005 66.975,49.494C68.297,50.092 69.516,50.911 70.572,51.906C71.664,52.935 72.579,54.15 73.263,55.485C73.827,56.585 74.233,57.765 74.466,58.979C74.733,60.371 74.773,61.807 74.585,63.213C74.406,64.551 74.019,65.86 73.439,67.08C72.773,68.485 71.855,69.767 70.743,70.853C69.572,71.996 68.189,72.919 66.682,73.556C65.096,74.228 63.38,74.578 61.658,74.589C59.932,74.6 58.209,74.271 56.612,73.618C55.096,72.998 53.702,72.092 52.517,70.963C51.392,69.89 50.459,68.619 49.776,67.224C49.183,66.013 48.779,64.711 48.584,63.376C48.378,61.973 48.4,60.536 48.65,59.14C48.868,57.922 49.26,56.735 49.811,55.627C50.468,54.307 51.348,53.099 52.403,52.069C53.46,51.038 54.689,50.186 56.026,49.561C57.101,49.059 58.244,48.704 59.414,48.51C60.044,48.406 60.681,48.35 61.319,48.335C61.432,48.334 61.545,48.333 61.658,48.333ZM61.508,51.363C61.014,51.367 60.522,51.404 60.034,51.479C59.133,51.617 58.251,51.879 57.42,52.254C56.403,52.715 55.464,53.345 54.651,54.111C53.84,54.875 53.156,55.773 52.635,56.759C52.193,57.597 51.87,58.497 51.68,59.426C51.452,60.537 51.414,61.687 51.564,62.811C51.699,63.819 51.987,64.805 52.417,65.726C52.933,66.829 53.649,67.835 54.52,68.686C55.421,69.565 56.485,70.276 57.645,70.766C58.865,71.283 60.183,71.551 61.508,71.56C62.834,71.568 64.159,71.316 65.388,70.814C66.554,70.337 67.627,69.639 68.539,68.77C69.419,67.93 70.148,66.933 70.676,65.836C71.117,64.922 71.417,63.941 71.565,62.937C71.726,61.835 71.705,60.706 71.503,59.611C71.326,58.657 71.01,57.73 70.567,56.867C70.059,55.875 69.385,54.969 68.582,54.194C67.779,53.42 66.849,52.778 65.838,52.306C65.012,51.92 64.135,51.648 63.237,51.499C62.751,51.418 62.261,51.375 61.769,51.364C61.682,51.363 61.595,51.363 61.508,51.363Z" style="" fill="black" fill-rule="nonzero"/></g><g transform="matrix(1,-3.86291e-15,-3.86291e-15,16.7715,4.78954e-14,-185.258)"><path d="M50.146,11.344C50.471,11.346 50.788,11.349 51.092,11.356C51.882,11.375 52.516,11.413 52.812,11.461C52.925,11.479 52.983,11.498 52.998,11.517C53.042,11.678 53,11.839 53,12C52.998,12.008 52.992,12.015 52.975,12.023C52.929,12.044 52.819,12.065 52.653,12.084C52.517,12.099 52.343,12.113 52.138,12.125C51.52,12.163 50.636,12.183 49.757,12.178C49.467,12.177 49.18,12.173 48.908,12.167C48.576,12.159 48.268,12.148 48.002,12.133C47.712,12.118 47.473,12.099 47.303,12.078C47.175,12.063 47.086,12.046 47.039,12.029C47.018,12.021 47.008,12.014 47.002,12.006C46.958,11.845 47,11.684 47,11.523C47.006,11.502 47.063,11.481 47.188,11.461C47.496,11.411 48.168,11.372 48.999,11.354C49.307,11.348 49.626,11.345 49.951,11.344C50.049,11.344 50.049,11.344 50.146,11.344Z" style="" fill="black" fill-rule="nonzero"/></g><g transform="matrix(0.707107,0.707107,-11.8593,11.8593,180.997,-151.708)"><path d="M47.952,11.392C48.257,11.376 48.606,11.363 48.995,11.354C49.799,11.337 50.706,11.342 51.452,11.366C51.692,11.374 51.912,11.384 52.107,11.396C52.321,11.408 52.503,11.423 52.645,11.439C52.799,11.456 52.906,11.475 52.96,11.494C52.982,11.502 52.993,11.51 52.999,11.518C53.036,11.68 53.036,11.843 52.999,12.005C52.993,12.013 52.982,12.021 52.96,12.029C52.906,12.048 52.799,12.067 52.645,12.084C52.516,12.099 52.354,12.112 52.164,12.124C51.554,12.162 50.675,12.182 49.795,12.178C49.495,12.177 49.199,12.173 48.919,12.167C48.587,12.159 48.279,12.148 48.013,12.134C47.726,12.119 47.489,12.101 47.318,12.08C47.183,12.064 47.089,12.047 47.04,12.029C47.018,12.021 47.007,12.013 47.001,12.005C46.964,11.843 46.964,11.68 47.001,11.518C47.008,11.508 47.023,11.499 47.055,11.489C47.122,11.468 47.252,11.448 47.437,11.43C47.537,11.42 47.653,11.411 47.78,11.403C47.836,11.399 47.893,11.396 47.952,11.392Z" style="" fill="black" fill-rule="nonzero"/></g><g transform="matrix(4.05231e-15,1,-16.7715,-3.55271e-15,285.258,-3.55271e-14)"><path d="M47.002,11.517C47.008,11.509 47.018,11.502 47.039,11.494C47.097,11.473 47.217,11.453 47.394,11.434C47.538,11.419 47.72,11.405 47.931,11.393C48.545,11.359 49.397,11.341 50.243,11.345C50.533,11.346 50.82,11.35 51.092,11.356C51.424,11.364 51.732,11.375 51.998,11.39C52.288,11.405 52.527,11.424 52.697,11.445C52.825,11.46 52.914,11.477 52.961,11.494C52.982,11.502 52.992,11.509 52.998,11.517C53.042,11.678 53,11.839 53,12C52.998,12.008 52.992,12.015 52.975,12.023C52.937,12.04 52.857,12.057 52.738,12.073C52.579,12.094 52.351,12.114 52.069,12.13C51.811,12.144 51.509,12.156 51.182,12.164C50.914,12.171 50.629,12.176 50.339,12.178C49.463,12.184 48.569,12.166 47.931,12.13C47.72,12.118 47.538,12.104 47.394,12.089C47.217,12.07 47.097,12.05 47.039,12.029C47.018,12.021 47.008,12.014 47.002,12.006C46.957,11.843 46.957,11.68 47.002,11.517Z" style="" fill="black" fill-rule="nonzero"/></g><g transform="matrix(-0.707107,0.707107,-11.8593,-11.8593,251.708,180.997)"><path d="M47.836,12.124C47.724,12.117 47.619,12.109 47.526,12.101C47.309,12.082 47.154,12.061 47.071,12.039C47.03,12.028 47.009,12.016 47.001,12.005C46.964,11.843 46.964,11.68 47.001,11.518C47.007,11.51 47.018,11.502 47.04,11.494C47.089,11.476 47.183,11.459 47.318,11.443C47.489,11.422 47.726,11.404 48.013,11.389C48.279,11.375 48.587,11.364 48.919,11.356C49.199,11.35 49.495,11.346 49.795,11.345C50.068,11.343 50.343,11.345 50.61,11.348C51.473,11.359 52.228,11.392 52.645,11.439C52.799,11.456 52.906,11.475 52.96,11.494C52.982,11.502 52.993,11.51 52.999,11.518C53.036,11.68 53.036,11.843 52.999,12.005C52.982,12.029 52.893,12.053 52.718,12.076C52.357,12.122 51.667,12.157 50.849,12.172C50.587,12.176 50.314,12.179 50.041,12.179C49.74,12.179 49.44,12.177 49.151,12.172C48.837,12.166 48.538,12.157 48.27,12.146C48.158,12.141 48.054,12.136 47.952,12.131C47.893,12.127 47.893,12.127 47.836,12.124Z" style="" fill="black" fill-rule="nonzero"/></g><g transform="matrix(-1,4.21885e-15,0,-16.7715,100,285.258)"><path d="M49.854,12.179C49.529,12.177 49.212,12.174 48.908,12.167C48.118,12.148 47.484,12.11 47.188,12.062C47.075,12.044 47.017,12.025 47.002,12.006C46.958,11.845 47,11.684 47,11.523C47.002,11.515 47.008,11.508 47.025,11.5C47.071,11.479 47.181,11.458 47.347,11.439C47.483,11.424 47.657,11.41 47.862,11.398C48.48,11.36 49.364,11.34 50.243,11.345C50.533,11.346 50.82,11.35 51.092,11.356C51.424,11.364 51.732,11.375 51.998,11.39C52.288,11.405 52.527,11.424 52.697,11.445C52.825,11.46 52.914,11.477 52.961,11.494C52.982,11.502 52.992,11.509 52.998,11.517C53.042,11.678 53,11.839 53,12C52.994,12.021 52.937,12.042 52.812,12.062C52.504,12.112 51.832,12.151 51.001,12.169C50.693,12.175 50.374,12.178 50.049,12.179C49.951,12.179 49.951,12.179 49.854,12.179Z" style="" fill="black" fill-rule="nonzero"/></g><g transform="matrix(-0.707107,-0.707107,11.8593,-11.8593,-80.9974,251.708)"><path d="M52.048,12.131C51.743,12.147 51.394,12.16 51.005,12.169C50.747,12.174 50.477,12.177 50.205,12.178C49.354,12.182 48.501,12.163 47.893,12.127C47.679,12.115 47.497,12.1 47.355,12.084C47.201,12.067 47.094,12.048 47.04,12.029C47.018,12.021 47.007,12.013 47.001,12.005C46.964,11.843 46.964,11.68 47.001,11.518C47.007,11.51 47.018,11.502 47.04,11.494C47.094,11.475 47.201,11.456 47.355,11.439C47.484,11.424 47.646,11.411 47.836,11.399C48.446,11.361 49.325,11.341 50.205,11.345C50.505,11.346 50.801,11.35 51.081,11.356C51.413,11.364 51.721,11.375 51.987,11.389C52.274,11.404 52.511,11.422 52.682,11.443C52.817,11.459 52.911,11.476 52.96,11.494C52.982,11.502 52.993,11.51 52.999,11.518C53.036,11.68 53.036,11.843 52.999,12.005C52.991,12.016 52.97,12.028 52.929,12.039C52.852,12.059 52.713,12.079 52.52,12.097C52.43,12.105 52.329,12.113 52.22,12.12C52.164,12.124 52.107,12.127 52.048,12.131Z" style="" fill="black" fill-rule="nonzero"/></g><g transform="matrix(-4.44089e-15,-1,16.7715,-3.55271e-15,-185.258,100)"><path d="M52.998,12.006C52.992,12.014 52.982,12.021 52.961,12.029C52.903,12.05 52.783,12.07 52.606,12.089C52.462,12.104 52.28,12.118 52.069,12.13C51.455,12.164 50.603,12.182 49.757,12.178C49.467,12.177 49.18,12.173 48.908,12.167C48.576,12.159 48.268,12.148 48.002,12.133C47.712,12.118 47.473,12.099 47.303,12.078C47.175,12.063 47.086,12.046 47.039,12.029C47.018,12.021 47.008,12.014 47.002,12.006C46.958,11.845 47,11.684 47,11.523C47.002,11.515 47.008,11.508 47.025,11.5C47.071,11.479 47.181,11.458 47.347,11.439C47.759,11.393 48.511,11.359 49.373,11.348C49.658,11.344 49.952,11.343 50.243,11.345C50.533,11.346 50.82,11.35 51.092,11.356C51.424,11.364 51.732,11.375 51.998,11.39C52.288,11.405 52.527,11.424 52.697,11.445C52.825,11.46 52.914,11.477 52.961,11.494C52.982,11.502 52.992,11.509 52.998,11.517C53.043,11.68 53.043,11.843 52.998,12.006Z" style="" fill="black" fill-rule="nonzero"/></g><g transform="matrix(0.707107,-0.707107,11.8593,11.8593,-151.708,-80.9974)"><path d="M52.164,11.399C52.295,11.407 52.416,11.416 52.52,11.426C52.727,11.445 52.873,11.467 52.945,11.489C52.977,11.499 52.992,11.508 52.999,11.518C53.036,11.68 53.036,11.843 52.999,12.005C52.993,12.013 52.982,12.021 52.96,12.029C52.906,12.048 52.799,12.067 52.645,12.084C52.516,12.099 52.354,12.112 52.164,12.124C51.554,12.162 50.675,12.182 49.795,12.178C49.495,12.177 49.199,12.173 48.919,12.167C48.587,12.159 48.279,12.148 48.013,12.134C47.726,12.119 47.489,12.101 47.318,12.08C47.183,12.064 47.089,12.047 47.04,12.029C47.018,12.021 47.007,12.013 47.001,12.005C46.964,11.843 46.964,11.68 47.001,11.518C47.018,11.494 47.107,11.47 47.282,11.447C47.409,11.431 47.578,11.416 47.78,11.403C48.354,11.365 49.188,11.343 50.041,11.344C50.314,11.344 50.587,11.347 50.849,11.351C51.163,11.357 51.462,11.366 51.73,11.377C51.842,11.382 51.946,11.387 52.048,11.392C52.107,11.396 52.107,11.396 52.164,11.399Z" style="" fill="black" fill-rule="nonzero"/></g></g></g><text x="0" y="115" fill="#000000" font-size="5px" font-weight="bold" font-family="'Helvetica Neue', Helvetica, Arial-Unicode, Arial, Sans-serif">Created by Sébastien Robaszkiewicz</text><text x="0" y="120" fill="#000000" font-size="5px" font-weight="bold" font-family="'Helvetica Neue', Helvetica, Arial-Unicode, Arial, Sans-serif">from the Noun Project</text></svg>