<?xml version="1.0" encoding="utf-8"?>
<!-- Generator: Adobe Illustrator 21.1.0, SVG Export Plug-In . SVG Version: 6.00 Build 0)  -->
<svg version="1.1" id="Layer_1" xmlns="http://www.w3.org/2000/svg" xmlns:xlink="http://www.w3.org/1999/xlink" x="0px" y="0px"
	 viewBox="0 0 100 100" style="enable-background:new 0 0 100 100;" xml:space="preserve">
<style type="text/css">
	.st0{clip-path:url(#SVGID_2_);}
</style>
<g>
	<g>
		<defs>
			<rect id="SVGID_1_" width="100" height="100"/>
		</defs>
		<clipPath id="SVGID_2_">
			<use xlink:href="#SVGID_1_"  style="overflow:visible;"/>
		</clipPath>
		<g class="st0">
			<g>
				<g transform="matrix(1.98046,6.65049e-34,6.65049e-34,1.98046,-71.9428,-71.7214)">
					<path d="M61.7,48.3c0.6,0,1.3,0.1,1.9,0.2c1.2,0.2,2.3,0.5,3.4,1c1.3,0.6,2.5,1.4,3.6,2.4c1.1,1,2,2.2,2.7,3.6
						c0.6,1.1,1,2.3,1.2,3.5c0.3,1.4,0.3,2.8,0.1,4.2c-0.2,1.3-0.6,2.6-1.1,3.9c-0.7,1.4-1.6,2.7-2.7,3.8c-1.2,1.1-2.6,2.1-4.1,2.7
						c-1.6,0.7-3.3,1-5,1c-1.7,0-3.4-0.3-5-1c-1.5-0.6-2.9-1.5-4.1-2.7c-1.1-1.1-2.1-2.3-2.7-3.7c-0.6-1.2-1-2.5-1.2-3.8
						c-0.2-1.4-0.2-2.8,0.1-4.2c0.2-1.2,0.6-2.4,1.2-3.5c0.7-1.3,1.5-2.5,2.6-3.6c1.1-1,2.3-1.9,3.6-2.5c1.1-0.5,2.2-0.9,3.4-1.1
						c0.6-0.1,1.3-0.2,1.9-0.2C61.4,48.3,61.5,48.3,61.7,48.3z M61.5,51.4c-0.5,0-1,0-1.5,0.1c-0.9,0.1-1.8,0.4-2.6,0.8
						c-1,0.5-2,1.1-2.8,1.9c-0.8,0.8-1.5,1.7-2,2.6c-0.4,0.8-0.8,1.7-1,2.7c-0.2,1.1-0.3,2.3-0.1,3.4c0.1,1,0.4,2,0.9,2.9
						c0.5,1.1,1.2,2.1,2.1,3c0.9,0.9,2,1.6,3.1,2.1c1.2,0.5,2.5,0.8,3.9,0.8c1.3,0,2.7-0.2,3.9-0.7c1.2-0.5,2.2-1.2,3.2-2
						c0.9-0.8,1.6-1.8,2.1-2.9c0.4-0.9,0.7-1.9,0.9-2.9c0.2-1.1,0.1-2.2-0.1-3.3c-0.2-1-0.5-1.9-0.9-2.7c-0.5-1-1.2-1.9-2-2.7
						c-0.8-0.8-1.7-1.4-2.7-1.9c-0.8-0.4-1.7-0.7-2.6-0.8c-0.5-0.1-1-0.1-1.5-0.1C61.7,51.4,61.6,51.4,61.5,51.4z"/>
				</g>
				<g transform="matrix(1,-3.86291e-15,-3.86291e-15,16.7715,4.78954e-14,-185.258)">
					<path d="M50.1,11.3c0.3,0,0.6,0,0.9,0c0.8,0,1.4,0.1,1.7,0.1c0.1,0,0.2,0,0.2,0.1c0,0.2,0,0.3,0,0.5c0,0,0,0,0,0
						c0,0-0.2,0-0.3,0.1c-0.1,0-0.3,0-0.5,0c-0.6,0-1.5,0.1-2.4,0.1c-0.3,0-0.6,0-0.8,0c-0.3,0-0.6,0-0.9,0c-0.3,0-0.5,0-0.7-0.1
						c-0.1,0-0.2,0-0.3,0c0,0,0,0,0,0c0-0.2,0-0.3,0-0.5c0,0,0.1,0,0.2-0.1c0.3-0.1,1-0.1,1.8-0.1c0.3,0,0.6,0,1,0
						C50,11.3,50,11.3,50.1,11.3z"/>
				</g>
				<g transform="matrix(0.707107,0.707107,-11.8593,11.8593,180.997,-151.708)">
					<path d="M48,11.4c0.3,0,0.7,0,1,0c0.8,0,1.7,0,2.5,0c0.2,0,0.5,0,0.7,0c0.2,0,0.4,0,0.5,0c0.2,0,0.3,0,0.3,0.1c0,0,0,0,0,0
						c0,0.2,0,0.3,0,0.5c0,0,0,0,0,0c-0.1,0-0.2,0-0.3,0.1c-0.1,0-0.3,0-0.5,0c-0.6,0-1.5,0.1-2.4,0.1c-0.3,0-0.6,0-0.9,0
						c-0.3,0-0.6,0-0.9,0c-0.3,0-0.5,0-0.7-0.1c-0.1,0-0.2,0-0.3-0.1c0,0,0,0,0,0c0-0.2,0-0.3,0-0.5c0,0,0,0,0.1,0
						c0.1,0,0.2,0,0.4-0.1c0.1,0,0.2,0,0.3,0C47.8,11.4,47.9,11.4,48,11.4z"/>
				</g>
				<g transform="matrix(4.05231e-15,1,-16.7715,-3.55271e-15,285.258,-3.55271e-14)">
					<path d="M47,11.5C47,11.5,47,11.5,47,11.5c0.1,0,0.2-0.1,0.4-0.1c0.1,0,0.3,0,0.5,0c0.6,0,1.5-0.1,2.3,0c0.3,0,0.6,0,0.8,0
						c0.3,0,0.6,0,0.9,0c0.3,0,0.5,0,0.7,0.1c0.1,0,0.2,0,0.3,0c0,0,0,0,0,0c0,0.2,0,0.3,0,0.5c0,0,0,0,0,0c0,0-0.1,0-0.2,0.1
						c-0.2,0-0.4,0-0.7,0.1c-0.3,0-0.6,0-0.9,0c-0.3,0-0.6,0-0.8,0c-0.9,0-1.8,0-2.4,0c-0.2,0-0.4,0-0.5,0c-0.2,0-0.3,0-0.4-0.1
						c0,0,0,0,0,0C47,11.8,47,11.7,47,11.5z"/>
				</g>
				<g transform="matrix(-0.707107,0.707107,-11.8593,-11.8593,251.708,180.997)">
					<path d="M47.8,12.1c-0.1,0-0.2,0-0.3,0c-0.2,0-0.4,0-0.5-0.1c0,0-0.1,0-0.1,0c0-0.2,0-0.3,0-0.5c0,0,0,0,0,0c0,0,0.1,0,0.3-0.1
						c0.2,0,0.4,0,0.7-0.1c0.3,0,0.6,0,0.9,0c0.3,0,0.6,0,0.9,0c0.3,0,0.5,0,0.8,0c0.9,0,1.6,0,2,0.1c0.2,0,0.3,0,0.3,0.1
						c0,0,0,0,0,0c0,0.2,0,0.3,0,0.5c0,0-0.1,0-0.3,0.1c-0.4,0-1.1,0.1-1.9,0.1c-0.3,0-0.5,0-0.8,0c-0.3,0-0.6,0-0.9,0
						c-0.3,0-0.6,0-0.9,0c-0.1,0-0.2,0-0.3,0C47.9,12.1,47.9,12.1,47.8,12.1z"/>
				</g>
				<g transform="matrix(-1,4.21885e-15,0,-16.7715,100,285.258)">
					<path d="M49.9,12.2c-0.3,0-0.6,0-0.9,0c-0.8,0-1.4-0.1-1.7-0.1C47.1,12,47,12,47,12c0-0.2,0-0.3,0-0.5c0,0,0,0,0,0
						c0,0,0.2,0,0.3-0.1c0.1,0,0.3,0,0.5,0c0.6,0,1.5-0.1,2.4-0.1c0.3,0,0.6,0,0.8,0c0.3,0,0.6,0,0.9,0c0.3,0,0.5,0,0.7,0.1
						c0.1,0,0.2,0,0.3,0c0,0,0,0,0,0c0,0.2,0,0.3,0,0.5c0,0-0.1,0-0.2,0.1c-0.3,0.1-1,0.1-1.8,0.1c-0.3,0-0.6,0-1,0
						C50,12.2,50,12.2,49.9,12.2z"/>
				</g>
				<g transform="matrix(-0.707107,-0.707107,11.8593,-11.8593,-80.9974,251.708)">
					<path d="M52,12.1c-0.3,0-0.7,0-1,0c-0.3,0-0.5,0-0.8,0c-0.9,0-1.7,0-2.3-0.1c-0.2,0-0.4,0-0.5,0c-0.2,0-0.3,0-0.3-0.1
						c0,0,0,0,0,0c0-0.2,0-0.3,0-0.5c0,0,0,0,0,0c0.1,0,0.2,0,0.3-0.1c0.1,0,0.3,0,0.5,0c0.6,0,1.5-0.1,2.4-0.1c0.3,0,0.6,0,0.9,0
						c0.3,0,0.6,0,0.9,0c0.3,0,0.5,0,0.7,0.1c0.1,0,0.2,0,0.3,0.1c0,0,0,0,0,0c0,0.2,0,0.3,0,0.5c0,0,0,0-0.1,0
						c-0.1,0-0.2,0-0.4,0.1c-0.1,0-0.2,0-0.3,0C52.2,12.1,52.1,12.1,52,12.1z"/>
				</g>
				<g transform="matrix(-4.44089e-15,-1,16.7715,-3.55271e-15,-185.258,100)">
					<path d="M53,12C53,12,53,12,53,12c-0.1,0-0.2,0.1-0.4,0.1c-0.1,0-0.3,0-0.5,0c-0.6,0-1.5,0.1-2.3,0c-0.3,0-0.6,0-0.8,0
						c-0.3,0-0.6,0-0.9,0c-0.3,0-0.5,0-0.7-0.1c-0.1,0-0.2,0-0.3,0c0,0,0,0,0,0c0-0.2,0-0.3,0-0.5c0,0,0,0,0,0c0,0,0.2,0,0.3-0.1
						c0.4,0,1.2-0.1,2-0.1c0.3,0,0.6,0,0.9,0c0.3,0,0.6,0,0.8,0c0.3,0,0.6,0,0.9,0c0.3,0,0.5,0,0.7,0.1c0.1,0,0.2,0,0.3,0
						c0,0,0,0,0,0C53,11.7,53,11.8,53,12z"/>
				</g>
				<g transform="matrix(0.707107,-0.707107,11.8593,11.8593,-151.708,-80.9974)">
					<path d="M52.2,11.4c0.1,0,0.3,0,0.4,0c0.2,0,0.4,0,0.4,0.1c0,0,0,0,0.1,0c0,0.2,0,0.3,0,0.5c0,0,0,0,0,0c-0.1,0-0.2,0-0.3,0.1
						c-0.1,0-0.3,0-0.5,0c-0.6,0-1.5,0.1-2.4,0.1c-0.3,0-0.6,0-0.9,0c-0.3,0-0.6,0-0.9,0c-0.3,0-0.5,0-0.7-0.1c-0.1,0-0.2,0-0.3-0.1
						c0,0,0,0,0,0c0-0.2,0-0.3,0-0.5c0,0,0.1,0,0.3-0.1c0.1,0,0.3,0,0.5,0c0.6,0,1.4-0.1,2.3-0.1c0.3,0,0.5,0,0.8,0
						c0.3,0,0.6,0,0.9,0c0.1,0,0.2,0,0.3,0C52.1,11.4,52.1,11.4,52.2,11.4z"/>
				</g>
			</g>
		</g>
	</g>
</g>
</svg>
