<svg xmlns="http://www.w3.org/2000/svg" xmlns:xlink="http://www.w3.org/1999/xlink" viewBox="0 0 100 125" version="1.1" xml:space="preserve" style="" x="0px" y="0px" fill-rule="evenodd" clip-rule="evenodd" stroke-linejoin="round" stroke-miterlimit="1.41421"><g transform="matrix(1,0,0,1,-600,-0)"><clipPath id="a"><rect x="600" y="0" width="100" height="100"/></clipPath><g clip-path="url(#a)"><g transform="matrix(1,0,0,1,0,-4.97517)"><path d="M652,73C652,73.265 652.105,73.52 652.293,73.707C652.48,73.895 652.735,74 653,74C654.282,74 656.529,74 658.131,74C658.5,74 658.839,74.203 659.013,74.528C659.187,74.853 659.168,75.248 658.964,75.555C656.928,78.608 652.385,85.422 649.832,89.252C649.588,89.619 649.132,89.782 648.71,89.654C648.288,89.527 648,89.138 648,88.697C648,86.108 648,82.672 648,81C648,80.735 647.895,80.48 647.707,80.293C647.52,80.105 647.265,80 647,80C645.718,80 643.471,80 641.869,80C641.5,80 641.161,79.797 640.987,79.472C640.813,79.147 640.832,78.752 641.036,78.445C643.072,75.392 647.615,68.578 650.168,64.748C650.412,64.381 650.868,64.218 651.29,64.346C651.712,64.473 652,64.862 652,65.303C652,67.892 652,71.328 652,73Z" style="" fill="black"/><path d="M634.323,79.515C634.138,79.794 633.824,79.961 633.49,79.96C629.99,79.954 626.49,79.95 622.991,79.95C622.228,79.945 621.468,79.902 620.712,79.805C619.018,79.59 617.357,79.131 615.793,78.447C613.739,77.547 611.859,76.261 610.274,74.676C608.741,73.143 607.487,71.333 606.593,69.357C605.827,67.666 605.328,65.857 605.117,64.013C604.901,62.127 604.983,60.207 605.362,58.347C605.763,56.375 606.5,54.475 607.531,52.746C608.673,50.832 610.171,49.134 611.927,47.762C612.985,46.934 614.136,46.226 615.352,45.654C615.879,45.406 616.418,45.187 616.966,44.988L617,44.977C616.999,44.822 617.003,44.668 617.006,44.513C617.012,44.295 617.012,44.296 617.022,44.078C617.063,43.362 617.139,42.651 617.266,41.945C617.524,40.502 617.97,39.094 618.591,37.766C619.313,36.22 620.271,34.784 621.419,33.521C622.517,32.312 623.789,31.263 625.184,30.415C626.663,29.516 628.278,28.845 629.959,28.435C632.079,27.917 634.299,27.813 636.458,28.127C637.464,28.273 638.457,28.51 639.42,28.834C639.869,28.986 640.311,29.158 640.747,29.344L640.76,29.35C640.84,29.227 640.922,29.107 641.004,28.986C641.117,28.821 641.232,28.658 641.349,28.495C641.663,28.064 641.988,27.643 642.329,27.233C643.01,26.417 643.747,25.647 644.534,24.931C647.12,22.58 650.237,20.829 653.594,19.856C654.856,19.49 656.15,19.234 657.457,19.089C658.089,19.02 658.723,18.979 659.358,18.959C659.622,18.953 659.885,18.95 660.148,18.95C661.125,18.96 662.1,19.024 663.068,19.154C664.997,19.411 666.891,19.916 668.692,20.652C670.665,21.459 672.523,22.542 674.199,23.859C675.645,24.996 676.954,26.305 678.091,27.751C678.947,28.841 679.705,30.007 680.352,31.233C681.814,34.001 682.695,37.063 682.933,40.184C683.016,41.28 683.022,42.383 682.95,43.48C682.921,43.92 682.877,44.36 682.825,44.798L682.81,44.911C682.957,44.961 682.956,44.961 683.102,45.013C683.289,45.082 683.289,45.081 683.475,45.152C684.029,45.37 684.573,45.608 685.105,45.876C686.272,46.466 687.375,47.184 688.387,48.013C690.052,49.375 691.471,51.035 692.556,52.893C693.493,54.499 694.178,56.25 694.579,58.066C695.008,60.013 695.109,62.032 694.883,64.013C694.672,65.857 694.173,67.666 693.407,69.357C692.543,71.268 691.342,73.022 689.878,74.522C688.312,76.125 686.449,77.434 684.407,78.357C682.854,79.06 681.201,79.539 679.513,79.775C678.756,79.881 677.996,79.934 677.232,79.949C672.778,79.977 668.325,79.991 663.872,79.997C663.503,79.997 663.163,79.795 662.989,79.469C662.815,79.144 662.834,78.749 663.038,78.442C663.927,77.11 665.147,75.28 665.701,74.448C665.886,74.171 666.196,74.004 666.529,74.003C670.071,73.99 673.614,73.971 677.156,73.949C677.716,73.938 678.275,73.896 678.829,73.811C679.948,73.64 681.041,73.309 682.066,72.83C683.465,72.177 684.732,71.251 685.784,70.122C686.771,69.061 687.565,67.823 688.114,66.482C688.603,65.286 688.894,64.012 688.976,62.723C689.058,61.417 688.931,60.099 688.592,58.836C688.216,57.435 687.581,56.106 686.731,54.931C685.658,53.447 684.247,52.214 682.631,51.353C681.853,50.937 681.029,50.609 680.178,50.376C679.788,50.269 679.393,50.184 678.995,50.115C678.995,50.115 677.668,49.901 676.668,49.739C676.389,49.694 676.143,49.534 675.989,49.297C675.835,49.06 675.788,48.769 675.861,48.496C676.074,47.695 676.287,46.893 676.492,46.089C676.536,45.912 676.577,45.735 676.616,45.557C676.828,44.557 676.957,43.542 676.991,42.52C677.032,41.251 676.935,39.978 676.696,38.731C676.433,37.365 676.002,36.032 675.413,34.772C674.92,33.718 674.319,32.715 673.622,31.784C672.765,30.638 671.765,29.601 670.651,28.704C669.371,27.673 667.943,26.828 666.421,26.206C665.159,25.69 663.834,25.328 662.485,25.13C661.771,25.026 661.052,24.969 660.33,24.953C660.167,24.951 660.004,24.95 659.841,24.951C659.316,24.958 658.792,24.984 658.27,25.037C657.153,25.15 656.047,25.374 654.975,25.706C653.454,26.176 652.001,26.864 650.671,27.74C649.272,28.661 648.01,29.789 646.937,31.076C646.337,31.796 645.796,32.565 645.322,33.374C645.096,33.759 644.887,34.153 644.691,34.554C644.691,34.554 644.078,35.833 643.616,36.797C643.491,37.06 643.256,37.255 642.974,37.331C642.692,37.406 642.391,37.355 642.15,37.191C641.452,36.712 640.754,36.234 640.049,35.764C639.937,35.69 639.823,35.618 639.709,35.548C638.866,35.039 637.963,34.639 637.016,34.369C634.71,33.712 632.201,33.832 629.97,34.712C629.021,35.087 628.126,35.595 627.317,36.215C626.372,36.94 625.545,37.818 624.878,38.805C624.204,39.802 623.696,40.909 623.381,42.07C623.097,43.118 622.972,44.206 623.005,45.291C623.018,45.701 623.055,46.108 623.11,46.514L623.126,46.623C623.126,46.623 623.309,47.777 623.446,48.649C623.53,49.181 623.178,49.684 622.649,49.786C621.927,49.925 621.205,50.065 620.485,50.214C620.101,50.298 619.722,50.397 619.348,50.516C618.57,50.765 617.818,51.094 617.108,51.496C615.328,52.503 613.816,53.965 612.75,55.71C612.099,56.776 611.616,57.944 611.326,59.159C611.037,60.373 610.94,61.632 611.035,62.876C611.133,64.161 611.44,65.429 611.942,66.617C612.507,67.951 613.316,69.179 614.315,70.227C615.38,71.344 616.659,72.254 618.066,72.891C619.099,73.358 620.197,73.676 621.32,73.833C621.825,73.904 622.334,73.939 622.844,73.949C627.272,73.977 631.699,73.998 636.126,74.013C636.494,74.014 636.832,74.217 637.005,74.542C637.179,74.867 637.159,75.261 636.955,75.567C636.077,76.884 634.874,78.689 634.323,79.515Z" style="" fill="black"/></g></g></g><text x="0" y="115" fill="#000000" font-size="5px" font-weight="bold" font-family="'Helvetica Neue', Helvetica, Arial-Unicode, Arial, Sans-serif">Created by Sébastien Robaszkiewicz</text><text x="0" y="120" fill="#000000" font-size="5px" font-weight="bold" font-family="'Helvetica Neue', Helvetica, Arial-Unicode, Arial, Sans-serif">from the Noun Project</text></svg>